<?xml version="1.0" encoding="UTF-8"?>
<!DOCTYPE svg PUBLIC "-//W3C//DTD SVG 1.1//EN" "http://www.w3.org/Graphics/SVG/1.1/DTD/svg11.dtd">
<svg xmlns="http://www.w3.org/2000/svg" version="1.1" width="231px" height="87px" style="shape-rendering:geometricPrecision; text-rendering:geometricPrecision; image-rendering:optimizeQuality; fill-rule:evenodd; clip-rule:evenodd" xmlns:xlink="http://www.w3.org/1999/xlink">
<g><path style="opacity:1" fill="#4c833c" d="M 120.5,2.5 C 119.167,3.16667 117.833,3.83333 116.5,4.5C 113.298,6.57637 111.965,9.57637 112.5,13.5C 112.85,17.5646 113.517,21.5646 114.5,25.5C 111.881,25.7683 109.381,25.435 107,24.5C 105.053,18.1522 105.053,11.8188 107,5.5C 110.937,1.57008 115.437,0.570081 120.5,2.5 Z"/></g>
<g><path style="opacity:0.051" fill="#99b690" d="M 120.5,2.5 C 127.162,4.33208 133.162,7.49875 138.5,12C 142.333,15.8333 146.167,19.6667 150,23.5C 150.688,24.3317 150.521,24.9984 149.5,25.5C 142.175,17.0133 133.508,10.1799 123.5,5C 121.19,4.50335 118.857,4.33669 116.5,4.5C 117.833,3.83333 119.167,3.16667 120.5,2.5 Z"/></g>
<g><path style="opacity:0.176" fill="#91a5b7" d="M 11.5,28.5 C 12.6216,27.8442 13.9549,27.5108 15.5,27.5C 17.3328,27.5854 18.6661,28.2521 19.5,29.5C 16.9455,28.612 14.2788,28.2786 11.5,28.5 Z"/></g>
<g><path style="opacity:0.176" fill="#93a6b8" d="M 94.5,28.5 C 91.7212,28.2786 89.0545,28.612 86.5,29.5C 87.3339,28.2521 88.6672,27.5854 90.5,27.5C 92.0451,27.5108 93.3784,27.8442 94.5,28.5 Z"/></g>
<g><path style="opacity:0.004" fill="#6085a8" d="M 73.5,29.5 C 75.5,29.5 76.5,30.5 76.5,32.5C 75.1667,31.8333 74.1667,30.8333 73.5,29.5 Z"/></g>
<g><path style="opacity:0.204" fill="#829db8" d="M 121.5,28.5 C 116.833,28.5 112.167,28.5 107.5,28.5C 107.5,36.8333 107.5,45.1667 107.5,53.5C 109.833,53.5 112.167,53.5 114.5,53.5C 112.052,54.4731 109.385,54.8064 106.5,54.5C 106.5,45.5 106.5,36.5 106.5,27.5C 111.695,27.1795 116.695,27.5128 121.5,28.5 Z"/></g>
<g><path style="opacity:0.114" fill="#89a1b6" d="M 140.5,27.5 C 141.493,36.3178 141.827,45.3178 141.5,54.5C 138.5,54.5 135.5,54.5 132.5,54.5C 132.5,54.1667 132.5,53.8333 132.5,53.5C 132.833,53.5 133.167,53.5 133.5,53.5C 135.833,53.5 138.167,53.5 140.5,53.5C 140.5,45.1667 140.5,36.8333 140.5,28.5C 140.5,28.1667 140.5,27.8333 140.5,27.5 Z"/></g>
<g><path style="opacity:0.702" fill="#4a759e" d="M 162.5,53.5 C 164.5,53.5 166.5,53.5 168.5,53.5C 168.5,45.1667 168.5,36.8333 168.5,28.5C 166.5,28.5 164.5,28.5 162.5,28.5C 162.666,32.8461 162.499,37.1794 162,41.5C 161.283,40.9558 160.783,40.2891 160.5,39.5C 161.483,35.7016 161.817,31.7016 161.5,27.5C 164.167,27.5 166.833,27.5 169.5,27.5C 169.5,36.5 169.5,45.5 169.5,54.5C 166.941,54.8016 164.607,54.4682 162.5,53.5 Z"/></g>
<g><path style="opacity:0.737" fill="#45709a" d="M 190.5,29.5 C 185.187,28.9022 179.854,28.5688 174.5,28.5C 174.5,36.8333 174.5,45.1667 174.5,53.5C 178.371,53.185 182.038,53.5184 185.5,54.5C 181.5,54.5 177.5,54.5 173.5,54.5C 173.5,45.5 173.5,36.5 173.5,27.5C 177.846,27.3343 182.179,27.501 186.5,28C 188.058,28.21 189.391,28.71 190.5,29.5 Z"/></g>
<g><path style="opacity:1" fill="#214c81" d="M 209.5,27.5 C 223.123,26.0345 229.29,32.0345 228,45.5C 223.936,53.6099 217.436,56.4433 208.5,54C 199.796,48.4589 197.963,41.2922 203,32.5C 204.965,30.4497 207.132,28.783 209.5,27.5 Z M 213.5,34.5 C 219.611,36.0548 221.444,39.7215 219,45.5C 213.439,48.8029 209.939,47.3029 208.5,41C 208.645,37.4966 210.312,35.3299 213.5,34.5 Z"/></g>
<g><path style="opacity:1" fill="#1d487e" d="M 11.5,28.5 C 14.2788,28.2786 16.9455,28.612 19.5,29.5C 23.2624,37.5326 26.9291,45.6993 30.5,54C 25.6113,55.4533 21.9446,54.12 19.5,50C 16.5184,49.502 13.5184,49.3354 10.5,49.5C 10.7373,50.791 10.404,51.791 9.5,52.5C 6.92717,53.5552 4.26051,53.7218 1.5,53C 2.25244,52.3292 2.58577,51.4959 2.5,50.5C 5.11042,43.0008 8.11042,35.6675 11.5,28.5 Z M 14.5,39.5 C 15.1667,39.5 15.8333,39.5 16.5,39.5C 16.2627,40.791 16.596,41.791 17.5,42.5C 16.1667,43.8333 14.8333,43.8333 13.5,42.5C 14.1098,41.609 14.4431,40.609 14.5,39.5 Z"/></g>
<g><path style="opacity:0.995" fill="#10437b" d="M 54.5,36.5 C 53.9812,42.687 50.6479,46.3536 44.5,47.5C 42.7354,46.5386 40.7354,46.2053 38.5,46.5C 38.5,48.8333 38.5,51.1667 38.5,53.5C 36.5,53.5 34.5,53.5 32.5,53.5C 32.5,45.5 32.5,37.5 32.5,29.5C 37.544,29.1725 42.544,29.5059 47.5,30.5C 50.1472,32.2952 52.4805,34.2952 54.5,36.5 Z M 45.5,35.5 C 45.634,37.2915 45.3007,38.9582 44.5,40.5C 42.8333,40.5 41.1667,40.5 39.5,40.5C 39.3379,38.4727 39.5045,36.4727 40,34.5C 41.6995,35.4061 43.5328,35.7394 45.5,35.5 Z"/></g>
<g><path style="opacity:0.986" fill="#315b8a" d="M 54.5,36.5 C 52.4805,34.2952 50.1472,32.2952 47.5,30.5C 42.544,29.5059 37.544,29.1725 32.5,29.5C 32.5,37.5 32.5,45.5 32.5,53.5C 32.1667,53.5 31.8333,53.5 31.5,53.5C 31.5,44.8333 31.5,36.1667 31.5,27.5C 37.2617,27.1493 42.9284,27.6493 48.5,29C 51.8215,30.4837 53.8215,32.9837 54.5,36.5 Z"/></g>
<g><path style="opacity:0.859" fill="#295b8c" d="M 56.5,27.5 C 60.8461,27.3343 65.1794,27.501 69.5,28C 71.0581,28.21 72.3915,28.71 73.5,29.5C 68.1667,29.5 62.8333,29.5 57.5,29.5C 57.5,37.5 57.5,45.5 57.5,53.5C 56.507,45.0161 56.1736,36.3494 56.5,27.5 Z"/></g>
<g><path style="opacity:1" fill="#11437a" d="M 73.5,29.5 C 74.1667,30.8333 75.1667,31.8333 76.5,32.5C 80.0157,40.4621 77.349,45.4621 68.5,47.5C 67.0813,46.5489 65.4147,46.2155 63.5,46.5C 63.5,48.8333 63.5,51.1667 63.5,53.5C 61.5,53.5 59.5,53.5 57.5,53.5C 57.5,45.5 57.5,37.5 57.5,29.5C 62.8333,29.5 68.1667,29.5 73.5,29.5 Z M 65.5,34.5 C 67.0276,35.3092 68.6943,35.9759 70.5,36.5C 70.2407,40.0681 68.2407,41.4015 64.5,40.5C 64.2053,38.2646 64.5386,36.2646 65.5,34.5 Z"/></g>
<g><path style="opacity:1" fill="#19477d" d="M 94.5,28.5 C 98.3828,36.2662 101.716,44.2662 104.5,52.5C 101.939,53.7671 99.272,53.7671 96.5,52.5C 95.596,51.791 95.2627,50.791 95.5,49.5C 92.1667,49.5 88.8333,49.5 85.5,49.5C 85.7373,50.791 85.404,51.791 84.5,52.5C 81.9455,53.388 79.2788,53.7214 76.5,53.5C 79.3149,45.2134 82.6483,37.2134 86.5,29.5C 89.0545,28.612 91.7212,28.2786 94.5,28.5 Z M 89.5,39.5 C 90.1667,39.5 90.8333,39.5 91.5,39.5C 91.5569,40.609 91.8902,41.609 92.5,42.5C 91.1667,43.8333 89.8333,43.8333 88.5,42.5C 89.404,41.791 89.7373,40.791 89.5,39.5 Z"/></g>
<g><path style="opacity:1" fill="#19487e" d="M 121.5,28.5 C 128.455,29.3722 131.289,33.3722 130,40.5C 129.027,42.64 127.527,44.3067 125.5,45.5C 127.506,48.8292 129.839,51.8292 132.5,54.5C 138.201,62.359 145.201,68.859 153.5,74C 158.346,76.5204 163.346,77.0204 168.5,75.5C 169.65,74.1498 170.317,74.3164 170.5,76C 169.115,77.5971 168.449,79.4305 168.5,81.5C 164.802,83.506 160.802,84.006 156.5,83C 140.18,75.0154 127.346,63.182 118,47.5C 116.989,46.6634 115.822,46.33 114.5,46.5C 114.5,48.8333 114.5,51.1667 114.5,53.5C 112.167,53.5 109.833,53.5 107.5,53.5C 107.5,45.1667 107.5,36.8333 107.5,28.5C 112.167,28.5 116.833,28.5 121.5,28.5 Z M 114.5,35.5 C 116.857,35.3367 119.19,35.5034 121.5,36C 122.791,38.0902 122.124,39.4236 119.5,40C 117.866,40.4935 116.199,40.6602 114.5,40.5C 114.5,38.8333 114.5,37.1667 114.5,35.5 Z"/></g>
<g><path style="opacity:1" fill="#033f78" d="M 140.5,28.5 C 140.5,36.8333 140.5,45.1667 140.5,53.5C 138.167,53.5 135.833,53.5 133.5,53.5C 133.5,45.1667 133.5,36.8333 133.5,28.5C 135.833,28.5 138.167,28.5 140.5,28.5 Z"/></g>
<g><path style="opacity:0.255" fill="#5580a8" d="M 152.5,29.5 C 150.283,28.6314 147.95,28.298 145.5,28.5C 145.5,36.8333 145.5,45.1667 145.5,53.5C 147.5,53.5 149.5,53.5 151.5,53.5C 151.174,49.1161 151.508,44.7828 152.5,40.5C 153.107,40.6236 153.44,40.9569 153.5,41.5C 152.515,45.6344 152.182,49.9677 152.5,54.5C 149.833,54.5 147.167,54.5 144.5,54.5C 144.5,45.5 144.5,36.5 144.5,27.5C 147.698,26.9644 150.365,27.631 152.5,29.5 Z"/></g>
<g><path style="opacity:1" fill="#0b4179" d="M 152.5,29.5 C 153.5,29.8333 154.167,30.5 154.5,31.5C 154.427,33.0269 155.094,34.0269 156.5,34.5C 158.543,35.5794 159.876,37.246 160.5,39.5C 160.783,40.2891 161.283,40.9558 162,41.5C 162.499,37.1794 162.666,32.8461 162.5,28.5C 164.5,28.5 166.5,28.5 168.5,28.5C 168.5,36.8333 168.5,45.1667 168.5,53.5C 166.5,53.5 164.5,53.5 162.5,53.5C 159.016,49.8664 156.016,45.8664 153.5,41.5C 153.44,40.9569 153.107,40.6236 152.5,40.5C 151.508,44.7828 151.174,49.1161 151.5,53.5C 149.5,53.5 147.5,53.5 145.5,53.5C 145.5,45.1667 145.5,36.8333 145.5,28.5C 147.95,28.298 150.283,28.6314 152.5,29.5 Z"/></g>
<g><path style="opacity:1" fill="#0d427a" d="M 190.5,29.5 C 193.089,30.4194 195.089,32.086 196.5,34.5C 197.051,37.8067 197.384,41.1401 197.5,44.5C 196.022,50.6061 192.022,53.9394 185.5,54.5C 182.038,53.5184 178.371,53.185 174.5,53.5C 174.5,45.1667 174.5,36.8333 174.5,28.5C 179.854,28.5688 185.187,28.9022 190.5,29.5 Z M 189.5,37.5 C 190.833,39.8333 190.833,42.1667 189.5,44.5C 187.058,45.9944 184.391,46.9944 181.5,47.5C 181.5,43.5 181.5,39.5 181.5,35.5C 184.421,35.2826 187.087,35.9493 189.5,37.5 Z"/></g>
<g><path style="opacity:0.537" fill="#6a8eb0" d="M 154.5,31.5 C 155.906,31.9731 156.573,32.9731 156.5,34.5C 155.094,34.0269 154.427,33.0269 154.5,31.5 Z"/></g>
<g><path style="opacity:0.22" fill="#7096ba" d="M 65.5,34.5 C 67.7812,34.0773 69.4479,34.744 70.5,36.5C 68.6943,35.9759 67.0276,35.3092 65.5,34.5 Z"/></g>
<g><path style="opacity:0.251" fill="#456f99" d="M 189.5,37.5 C 187.087,35.9493 184.421,35.2826 181.5,35.5C 181.5,39.5 181.5,43.5 181.5,47.5C 180.515,43.3656 180.182,39.0323 180.5,34.5C 183.5,34.5 186.5,34.5 189.5,34.5C 189.5,35.5 189.5,36.5 189.5,37.5 Z"/></g>
<g><path style="opacity:0.898" fill="#587ca5" d="M 196.5,34.5 C 198.531,37.7076 198.865,41.041 197.5,44.5C 197.384,41.1401 197.051,37.8067 196.5,34.5 Z"/></g>
<g><path style="opacity:0.165" fill="#6f94b6" d="M 16.5,39.5 C 15.8333,39.5 15.1667,39.5 14.5,39.5C 15.1667,36.8333 15.8333,36.8333 16.5,39.5 Z"/></g>
<g><path style="opacity:0.227" fill="#82a1bf" d="M 45.5,35.5 C 46.1386,36.0968 46.472,36.9302 46.5,38C 46.3158,39.3756 45.6491,40.2089 44.5,40.5C 45.6491,40.2089 46.3158,39.3756 46.5,38C 46.472,36.9302 46.1386,36.0968 45.5,35.5 Z"/></g>
<g><path style="opacity:0.086" fill="#8eacc6" d="M 91.5,39.5 C 90.8333,39.5 90.1667,39.5 89.5,39.5C 90.1667,36.8333 90.8333,36.8333 91.5,39.5 Z"/></g>
<g><path style="opacity:0.043" fill="#2b5072" d="M 140.5,27.5 C 140.5,27.8333 140.5,28.1667 140.5,28.5C 138.167,28.5 135.833,28.5 133.5,28.5C 133.5,36.8333 133.5,45.1667 133.5,53.5C 133.167,53.5 132.833,53.5 132.5,53.5C 132.5,44.8333 132.5,36.1667 132.5,27.5C 135.167,27.5 137.833,27.5 140.5,27.5 Z"/></g>
<g><path style="opacity:0.796" fill="#5d80a6" d="M 189.5,37.5 C 192.167,39.8333 192.167,42.1667 189.5,44.5C 190.833,42.1667 190.833,39.8333 189.5,37.5 Z"/></g>
<g><path style="opacity:0.031" fill="#8ba0b3" d="M 56.5,27.5 C 56.1736,36.3494 56.507,45.0161 57.5,53.5C 59.5,53.5 61.5,53.5 63.5,53.5C 63.5,51.1667 63.5,48.8333 63.5,46.5C 65.4147,46.2155 67.0813,46.5489 68.5,47.5C 67.1667,47.5 65.8333,47.5 64.5,47.5C 64.5,49.8333 64.5,52.1667 64.5,54.5C 61.5,54.5 58.5,54.5 55.5,54.5C 55.1734,45.3178 55.5067,36.3178 56.5,27.5 Z"/></g>
<g><path style="opacity:0.624" fill="#527a9f" d="M 13.5,42.5 C 14.8333,43.8333 16.1667,43.8333 17.5,42.5C 18.0431,42.56 18.3764,42.8933 18.5,43.5C 16.5,44.8333 14.5,44.8333 12.5,43.5C 12.6236,42.8933 12.9569,42.56 13.5,42.5 Z"/></g>
<g><path style="opacity:0.624" fill="#51799f" d="M 88.5,42.5 C 89.8333,43.8333 91.1667,43.8333 92.5,42.5C 93.0431,42.56 93.3764,42.8933 93.5,43.5C 91.5,44.8333 89.5,44.8333 87.5,43.5C 87.6236,42.8933 87.9569,42.56 88.5,42.5 Z"/></g>
<g><path style="opacity:0.3" fill="#7993ab" d="M 2.5,50.5 C 2.58577,51.4959 2.25244,52.3292 1.5,53C 4.26051,53.7218 6.92717,53.5552 9.5,52.5C 7.01215,54.3878 4.01215,55.0545 0.5,54.5C 0.229113,52.6203 0.895779,51.287 2.5,50.5 Z"/></g>
<g><path style="opacity:0.3" fill="#6f8aa4" d="M 44.5,47.5 C 42.8333,47.5 41.1667,47.5 39.5,47.5C 39.5,49.8333 39.5,52.1667 39.5,54.5C 36.6146,54.8064 33.9479,54.4731 31.5,53.5C 31.8333,53.5 32.1667,53.5 32.5,53.5C 34.5,53.5 36.5,53.5 38.5,53.5C 38.5,51.1667 38.5,48.8333 38.5,46.5C 40.7354,46.2053 42.7354,46.5386 44.5,47.5 Z"/></g>
<g><path style="opacity:0.298" fill="#7993ab" d="M 84.5,52.5 C 83.4855,53.7647 81.9855,54.4313 80,54.5C 77.9331,54.6255 76.7664,54.2922 76.5,53.5C 79.2788,53.7214 81.9455,53.388 84.5,52.5 Z"/></g>
<g><path style="opacity:0.3" fill="#7591aa" d="M 96.5,52.5 C 99.272,53.7671 101.939,53.7671 104.5,52.5C 105.043,52.56 105.376,52.8933 105.5,53.5C 104,53.8333 102.5,54.1667 101,54.5C 99.0145,54.4313 97.5145,53.7647 96.5,52.5 Z"/></g>
<g><path style="opacity:0.125" fill="#80a0bd" d="M 172.5,67.5 C 171.833,67.5 171.167,67.5 170.5,67.5C 169.665,64.0566 168.665,60.5566 167.5,57C 168.449,56.3828 169.282,56.5494 170,57.5C 170.776,60.8886 171.609,64.2219 172.5,67.5 Z"/></g>
<g><path style="opacity:0.925" fill="#4f729b" d="M 170.5,67.5 C 171.167,67.5 171.833,67.5 172.5,67.5C 173.003,72.8401 171.67,77.5068 168.5,81.5C 168.449,79.4305 169.115,77.5971 170.5,76C 170.317,74.3164 169.65,74.1498 168.5,75.5C 169.167,72.8333 169.833,70.1667 170.5,67.5 Z"/></g>
</svg>
