<?xml version="1.0" encoding="UTF-8"?>
<!DOCTYPE svg PUBLIC "-//W3C//DTD SVG 1.1//EN" "http://www.w3.org/Graphics/SVG/1.1/DTD/svg11.dtd">
<svg xmlns="http://www.w3.org/2000/svg" version="1.1" width="215px" height="140px" style="shape-rendering:geometricPrecision; text-rendering:geometricPrecision; image-rendering:optimizeQuality; fill-rule:evenodd; clip-rule:evenodd" xmlns:xlink="http://www.w3.org/1999/xlink">
<g><path style="opacity:1" fill="#f69524" d="M 115.5,34.5 C 114.833,34.5 114.5,34.8333 114.5,35.5C 109.842,38.4419 104.842,39.1086 99.5,37.5C 99.5,36.8333 99.1667,36.5 98.5,36.5C 98.1583,35.6618 97.4916,35.3284 96.5,35.5C 96.5,34.8333 96.1667,34.5 95.5,34.5C 95.5,33.8333 95.1667,33.5 94.5,33.5C 90.4941,19.3392 95.8274,12.8392 110.5,14C 115.619,16.34 117.952,20.34 117.5,26C 117.519,29.0244 116.853,31.8577 115.5,34.5 Z"/></g>
<g><path style="opacity:1" fill="#0f4395" d="M 89.5,42.5 C 91.8863,43.3733 93.8863,44.8733 95.5,47C 98.5716,47.4559 101.572,47.4559 104.5,47C 95.1478,56.8737 88.8145,68.3737 85.5,81.5C 85.5309,88.5293 88.8642,90.8626 95.5,88.5C 103.402,77.1292 107.735,64.4625 108.5,50.5C 109.167,50.8333 109.833,51.1667 110.5,51.5C 111.262,60.0732 113.095,68.4065 116,76.5C 117.858,79.4122 120.358,80.9122 123.5,81C 124,80.5 124.5,80 125,79.5C 125.5,66.3283 121.333,54.8283 112.5,45C 115.154,44.0594 117.821,43.2261 120.5,42.5C 140.503,42.3334 160.503,42.5 180.5,43C 185.239,44.119 189.072,46.619 192,50.5C 193.645,72.7449 193.978,95.0782 193,117.5C 191.093,121.039 188.26,123.539 184.5,125C 132.833,125.667 81.1667,125.667 29.5,125C 26,122.833 23.1667,120 21,116.5C 20.3333,95.1667 20.3333,73.8333 21,52.5C 23.9565,47.7685 28.1231,44.6019 33.5,43C 52.1637,42.5001 70.8304,42.3334 89.5,42.5 Z"/></g>
<g><path style="opacity:1" fill="#f3921e" d="M 94.5,33.5 C 95.1667,33.5 95.5,33.8333 95.5,34.5C 96.1667,34.5 96.5,34.8333 96.5,35.5C 96.8417,36.3382 97.5084,36.6716 98.5,36.5C 99.1667,36.5 99.5,36.8333 99.5,37.5C 100.058,38.7899 101.058,39.6232 102.5,40C 105.095,40.2256 107.595,40.7256 110,41.5C 111.332,39.34 112.832,37.34 114.5,35.5C 115.167,35.5 115.5,35.1667 115.5,34.5C 124.811,26.9527 135.477,23.6194 147.5,24.5C 147.5,25.5 147.5,26.5 147.5,27.5C 136.283,28.7608 127.283,33.7608 120.5,42.5C 117.821,43.2261 115.154,44.0594 112.5,45C 121.333,54.8283 125.5,66.3283 125,79.5C 124.5,80 124,80.5 123.5,81C 120.358,80.9122 117.858,79.4122 116,76.5C 113.095,68.4065 111.262,60.0732 110.5,51.5C 110.875,48.6035 110.375,45.9368 109,43.5C 108.503,45.8098 108.337,48.1432 108.5,50.5C 107.735,64.4625 103.402,77.1292 95.5,88.5C 88.8642,90.8626 85.5309,88.5293 85.5,81.5C 88.8145,68.3737 95.1478,56.8737 104.5,47C 101.572,47.4559 98.5716,47.4559 95.5,47C 93.8863,44.8733 91.8863,43.3733 89.5,42.5C 85.5346,35.7361 82.5346,28.5695 80.5,21C 81.549,20.5078 82.549,20.6744 83.5,21.5C 86.5083,26.172 90.175,30.172 94.5,33.5 Z M 114.5,35.5 C 112.832,37.34 111.332,39.34 110,41.5C 107.595,40.7256 105.095,40.2256 102.5,40C 101.058,39.6232 100.058,38.7899 99.5,37.5C 104.842,39.1086 109.842,38.4419 114.5,35.5 Z"/></g>
<g><path style="opacity:1" fill="#5c5e68" d="M 110.5,51.5 C 109.833,51.1667 109.167,50.8333 108.5,50.5C 108.337,48.1432 108.503,45.8098 109,43.5C 110.375,45.9368 110.875,48.6035 110.5,51.5 Z"/></g>
<g><path style="opacity:1" fill="#dee5f0" d="M 52.5,51.5 C 54.1439,51.2865 55.6439,51.6198 57,52.5C 59.2011,59.9884 61.7011,67.3218 64.5,74.5C 66.2494,66.5902 68.5828,58.9235 71.5,51.5C 73.4672,51.2606 75.3005,51.5939 77,52.5C 79.2449,62.7314 80.7449,73.0647 81.5,83.5C 80.1779,83.67 79.0113,83.3366 78,82.5C 77.2245,74.4041 75.8911,66.4041 74,58.5C 70.599,65.0869 68.2657,72.0869 67,79.5C 66.4115,81.8633 64.9115,82.8633 62.5,82.5C 60.0058,74.5307 57.5058,66.5307 55,58.5C 53.0121,66.3574 51.6788,74.3574 51,82.5C 49.6667,83.8333 48.3333,83.8333 47,82.5C 47.5812,71.9278 49.4145,61.5945 52.5,51.5 Z"/></g>
<g><path style="opacity:1" fill="#e5ebf4" d="M 132.5,51.5 C 137.179,51.3342 141.845,51.5008 146.5,52C 151.609,55.3662 152.776,59.8662 150,65.5C 147.567,67.6258 144.734,68.9591 141.5,69.5C 145.187,72.3531 148.353,75.6865 151,79.5C 151.781,80.9437 151.614,82.277 150.5,83.5C 145.833,79.5 141.5,75.1667 137.5,70.5C 136.673,74.4592 136.173,78.4592 136,82.5C 135,83.8333 134,83.8333 133,82.5C 132.5,72.172 132.334,61.8387 132.5,51.5 Z"/></g>
<g><path style="opacity:1" fill="#e5ebf3" d="M 155.5,51.5 C 156.833,51.5 158.167,51.5 159.5,51.5C 159.5,62.1667 159.5,72.8333 159.5,83.5C 158.178,83.67 157.011,83.3366 156,82.5C 155.5,72.172 155.334,61.8387 155.5,51.5 Z"/></g>
<g><path style="opacity:1" fill="#154194" d="M 136.5,54.5 C 139.187,54.3359 141.854,54.5026 144.5,55C 148.01,58.048 148.343,61.3813 145.5,65C 142.518,65.498 139.518,65.6646 136.5,65.5C 136.5,61.8333 136.5,58.1667 136.5,54.5 Z"/></g>
<g><path style="opacity:1" fill="#e6ecf4" d="M 30.5,90.5 C 38.8102,88.3368 42.6435,91.3368 42,99.5C 41.5,100 41,100.5 40.5,101C 45.8333,105 45.8333,109 40.5,113C 37.1832,113.498 33.8499,113.665 30.5,113.5C 30.5,105.833 30.5,98.1667 30.5,90.5 Z"/></g>
<g><path style="opacity:1" fill="#c0cee4" d="M 183.5,90.5 C 186.861,91.2032 187.194,92.5365 184.5,94.5C 182.358,93.5629 182.024,92.2296 183.5,90.5 Z"/></g>
<g><path style="opacity:1" fill="#214899" d="M 32.5,93.5 C 39.1904,92.3306 40.8571,94.4973 37.5,100C 35.8659,100.494 34.1992,100.66 32.5,100.5C 32.5,98.1667 32.5,95.8333 32.5,93.5 Z"/></g>
<g><path style="opacity:1" fill="#dae3ef" d="M 63.5,96.5 C 66.2241,97.3946 68.8908,97.728 71.5,97.5C 70.1349,98.941 68.6349,100.274 67,101.5C 66.5012,105.486 66.3345,109.486 66.5,113.5C 65.5,113.5 64.5,113.5 63.5,113.5C 63.5,107.833 63.5,102.167 63.5,96.5 Z"/></g>
<g><path style="opacity:1" fill="#d9e1ef" d="M 106.5,96.5 C 107.5,96.5 108.5,96.5 109.5,96.5C 109.334,100.846 109.501,105.179 110,109.5C 112,110.833 114,110.833 116,109.5C 116.499,105.179 116.666,100.846 116.5,96.5C 117.5,96.5 118.5,96.5 119.5,96.5C 119.666,101.179 119.499,105.845 119,110.5C 114.925,114.41 110.925,114.41 107,110.5C 106.501,105.845 106.334,101.179 106.5,96.5 Z"/></g>
<g><path style="opacity:1" fill="#d7e0ee" d="M 136.5,96.5 C 139.952,96.8197 143.285,96.8197 146.5,96.5C 147.833,102.167 147.833,107.833 146.5,113.5C 143.604,113.293 140.604,113.127 137.5,113C 134.183,111.196 132.85,108.363 133.5,104.5C 133.078,101.218 134.078,98.5518 136.5,96.5 Z"/></g>
<g><path style="opacity:1" fill="#dbe3f0" d="M 151.5,96.5 C 154.758,97.0678 158.091,97.2345 161.5,97C 162.931,97.4652 164.097,98.2986 165,99.5C 165.499,104.155 165.666,108.821 165.5,113.5C 164.5,113.5 163.5,113.5 162.5,113.5C 162.666,109.154 162.499,104.821 162,100.5C 159.667,99.1667 157.333,99.1667 155,100.5C 154.501,104.821 154.334,109.154 154.5,113.5C 153.5,113.5 152.5,113.5 151.5,113.5C 151.5,107.833 151.5,102.167 151.5,96.5 Z"/></g>
<g><path style="opacity:1" fill="#d8e1ee" d="M 182.5,96.5 C 183.5,96.5 184.5,96.5 185.5,96.5C 185.5,102.167 185.5,107.833 185.5,113.5C 184.5,113.5 183.5,113.5 182.5,113.5C 182.5,107.833 182.5,102.167 182.5,96.5 Z"/></g>
<g><path style="opacity:1" fill="#dae4ef" d="M 123.5,96.5 C 126.224,97.3946 128.891,97.728 131.5,97.5C 130.135,98.941 128.635,100.274 127,101.5C 126.501,105.486 126.334,109.486 126.5,113.5C 125.5,113.5 124.5,113.5 123.5,113.5C 123.5,107.833 123.5,102.167 123.5,96.5 Z"/></g>
<g><path style="opacity:1" fill="#d6dfed" d="M 77.5,96.5 C 81.2625,97.0874 84.9292,97.0874 88.5,96.5C 88.5,102.167 88.5,107.833 88.5,113.5C 86.8762,113.64 85.7096,112.973 85,111.5C 81.3813,114.343 78.048,114.01 75,110.5C 72.418,105.12 73.2514,100.453 77.5,96.5 Z"/></g>
<g><path style="opacity:1" fill="#d6dfed" d="M 50.5,96.5 C 58.1667,95.5 61.5,98.8333 60.5,106.5C 56.8333,106.5 53.1667,106.5 49.5,106.5C 49.33,107.822 49.6634,108.989 50.5,110C 53.9499,110.175 57.2832,110.342 60.5,110.5C 55.677,114.828 51.177,114.495 47,109.5C 45.5394,104.326 46.7061,99.9932 50.5,96.5 Z"/></g>
<g><path style="opacity:1" fill="#0a3b91" d="M 50.5,99.5 C 52.5273,99.3379 54.5273,99.5045 56.5,100C 57.3366,101.011 57.67,102.178 57.5,103.5C 54.8333,103.5 52.1667,103.5 49.5,103.5C 49.4326,102.041 49.7659,100.708 50.5,99.5 Z"/></g>
<g><path style="opacity:1" fill="#0d4094" d="M 137.5,99.5 C 139.792,99.2436 141.959,99.5769 144,100.5C 145.004,103.993 144.504,107.159 142.5,110C 140.559,110.743 138.726,110.576 137,109.5C 136.253,106.076 136.42,102.743 137.5,99.5 Z"/></g>
<g><path style="opacity:1" fill="#124195" d="M 77.5,99.5 C 85.6291,99.2937 87.6291,102.794 83.5,110C 80.975,110.896 78.8083,110.396 77,108.5C 76.3658,105.445 76.5325,102.445 77.5,99.5 Z"/></g>
<g><path style="opacity:1" fill="#6e91c1" d="M 39.5,103.5 C 37.5,103.5 35.5,103.5 33.5,103.5C 33.5,105.833 33.5,108.167 33.5,110.5C 35.1667,110.5 36.8333,110.5 38.5,110.5C 36.7354,111.461 34.7354,111.795 32.5,111.5C 32.5,108.5 32.5,105.5 32.5,102.5C 35.0593,102.198 37.3926,102.532 39.5,103.5 Z"/></g>
<g><path style="opacity:1" fill="#053d92" d="M 39.5,103.5 C 42.3506,106.283 42.0172,108.616 38.5,110.5C 36.8333,110.5 35.1667,110.5 33.5,110.5C 33.5,108.167 33.5,105.833 33.5,103.5C 35.5,103.5 37.5,103.5 39.5,103.5 Z"/></g>
<g><path style="opacity:1" fill="#dbe4f0" d="M 93.5,96.5 C 95.8568,96.3367 98.1902,96.5034 100.5,97C 102.405,97.8261 102.739,98.9928 101.5,100.5C 99.2534,99.6258 96.9201,99.2924 94.5,99.5C 94.281,100.675 94.6143,101.675 95.5,102.5C 98.1886,103.557 100.689,104.89 103,106.5C 103.576,110.93 101.576,113.264 97,113.5C 94.6154,113.744 92.7821,112.911 91.5,111C 91.8333,110.5 92.1667,110 92.5,109.5C 95.0841,110.393 97.7508,110.726 100.5,110.5C 100.67,109.178 100.337,108.011 99.5,107C 92.6486,105.746 90.6486,102.246 93.5,96.5 Z"/></g>
<g><path style="opacity:1" fill="#d8e1ee" d="M 170.5,96.5 C 172.857,96.3367 175.19,96.5034 177.5,97C 178.357,97.6891 179.023,98.5224 179.5,99.5C 176.956,99.9491 174.29,99.9491 171.5,99.5C 171.33,100.822 171.663,101.989 172.5,103C 177.803,103.618 179.97,106.452 179,111.5C 174.739,114.481 170.905,114.148 167.5,110.5C 170.319,110.258 173.319,110.258 176.5,110.5C 176.67,109.178 176.337,108.011 175.5,107C 168.516,105.794 166.85,102.294 170.5,96.5 Z"/></g>
</svg>
