<?xml version="1.0" encoding="UTF-8"?>
<!DOCTYPE svg PUBLIC "-//W3C//DTD SVG 1.1//EN" "http://www.w3.org/Graphics/SVG/1.1/DTD/svg11.dtd">
<svg xmlns="http://www.w3.org/2000/svg" version="1.1" width="937px" height="750px" style="shape-rendering:geometricPrecision; text-rendering:geometricPrecision; image-rendering:optimizeQuality; fill-rule:evenodd; clip-rule:evenodd" xmlns:xlink="http://www.w3.org/1999/xlink">
<g><path style="opacity:0.843" fill="#909090" d="M 645.5,-0.5 C 655.833,-0.5 666.167,-0.5 676.5,-0.5C 726.479,9.6431 757.312,39.6431 769,89.5C 770.409,111.801 770.909,134.135 770.5,156.5C 765.695,157.487 760.695,157.821 755.5,157.5C 758.625,156.521 761.958,156.187 765.5,156.5C 765.769,152.069 765.436,147.735 764.5,143.5C 764.667,127.497 764.5,111.497 764,95.5C 754.826,46.6426 725.993,16.8092 677.5,6C 622.78,1.42288 584.613,24.2562 563,74.5C 561.353,79.7538 560.02,85.0871 559,90.5C 557.586,108.125 557.086,125.791 557.5,143.5C 557.5,147.833 557.5,152.167 557.5,156.5C 560.713,156.19 563.713,156.523 566.5,157.5C 561.305,157.821 556.305,157.487 551.5,156.5C 551.092,134.468 551.592,112.468 553,90.5C 564.247,40.0847 595.081,9.75134 645.5,-0.5 Z M 764.5,143.5 C 762.412,142.061 760.079,141.394 757.5,141.5C 759.757,124.852 759.923,108.185 758,91.5C 755.163,69.6499 744.997,52.1499 727.5,39C 722.058,34.9456 716.058,31.9456 709.5,30C 702.366,23.6006 694.033,19.6006 684.5,18C 649.797,12.4723 618.131,19.8056 589.5,40C 576.243,52.3431 568.076,67.5097 565,85.5C 561.612,104.248 561.778,122.914 565.5,141.5C 562.579,141.283 559.913,141.949 557.5,143.5C 557.086,125.791 557.586,108.125 559,90.5C 560.02,85.0871 561.353,79.7538 563,74.5C 584.613,24.2562 622.78,1.42288 677.5,6C 725.993,16.8092 754.826,46.6426 764,95.5C 764.5,111.497 764.667,127.497 764.5,143.5 Z"/></g>
<g><path style="opacity:0.989" fill="#6c6c6c" d="M 757.5,141.5 C 754.962,153.687 752.462,166.02 750,178.5C 749.667,166.5 749.333,154.5 749,142.5C 746.7,132.232 742.033,123.232 735,115.5C 727.296,108.127 719.296,101.127 711,94.5C 708.25,90.6682 705.75,86.6682 703.5,82.5C 697.058,87.0544 690.058,90.5544 682.5,93C 657.687,100.604 633.021,108.604 608.5,117C 596.136,121.593 584.969,128.093 575,136.5C 572.966,149.406 571.966,162.406 572,175.5C 569.196,164.284 567.029,152.951 565.5,141.5C 561.778,122.914 561.612,104.248 565,85.5C 568.076,67.5097 576.243,52.3431 589.5,40C 618.131,19.8056 649.797,12.4723 684.5,18C 694.033,19.6006 702.366,23.6006 709.5,30C 716.058,31.9456 722.058,34.9456 727.5,39C 744.997,52.1499 755.163,69.6499 758,91.5C 759.923,108.185 759.757,124.852 757.5,141.5 Z"/></g>
<g><path style="opacity:0.857" fill="#909090" d="M 406.5,168.5 C 405.081,169.451 403.415,169.784 401.5,169.5C 401.721,166.721 401.388,164.054 400.5,161.5C 400.896,144.129 400.396,126.795 399,109.5C 396.522,95.8962 391.355,83.5629 383.5,72.5C 383.573,70.9731 382.906,69.9731 381.5,69.5C 381.262,67.5956 380.262,66.2623 378.5,65.5C 377.92,63.2512 376.587,61.5846 374.5,60.5C 374.5,59.8333 374.167,59.5 373.5,59.5C 363.674,47.2028 351.341,38.0361 336.5,32C 332.693,30.1192 328.693,28.9526 324.5,28.5C 276.233,17.0422 237.399,31.3755 208,71.5C 199.502,84.9921 194.169,99.6587 192,115.5C 191.5,130.83 191.333,146.163 191.5,161.5C 190.631,163.717 190.298,166.05 190.5,168.5C 192.415,168.216 194.081,168.549 195.5,169.5C 191.958,169.813 188.625,169.479 185.5,168.5C 185.073,148.126 185.573,127.793 187,107.5C 197.363,62.8046 224.53,33.9712 268.5,21C 316.55,11.1278 355.717,25.2944 386,63.5C 395.83,76.9797 402.163,91.9797 405,108.5C 406.425,128.46 406.925,148.46 406.5,168.5 Z M 324.5,28.5 C 284.149,19.9568 249.316,29.9568 220,58.5C 205.989,74.5293 197.989,93.196 196,114.5C 195.231,129.859 195.398,145.192 196.5,160.5C 194.784,160.629 193.117,160.962 191.5,161.5C 191.333,146.163 191.5,130.83 192,115.5C 194.169,99.6587 199.502,84.9921 208,71.5C 237.399,31.3755 276.233,17.0422 324.5,28.5 Z M 324.5,28.5 C 328.693,28.9526 332.693,30.1192 336.5,32C 351.341,38.0361 363.674,47.2028 373.5,59.5C 367.358,53.4271 360.025,49.4271 351.5,47.5C 344.957,37.6164 335.957,31.2831 324.5,28.5 Z M 374.5,60.5 C 376.587,61.5846 377.92,63.2512 378.5,65.5C 376.413,64.4154 375.08,62.7488 374.5,60.5 Z M 378.5,65.5 C 380.262,66.2623 381.262,67.5956 381.5,69.5C 379.738,68.7377 378.738,67.4044 378.5,65.5 Z M 381.5,69.5 C 382.906,69.9731 383.573,70.9731 383.5,72.5C 382.094,72.0269 381.427,71.0269 381.5,69.5 Z M 383.5,72.5 C 391.355,83.5629 396.522,95.8962 399,109.5C 400.396,126.795 400.896,144.129 400.5,161.5C 398.883,160.962 397.216,160.629 395.5,160.5C 396.573,144.185 396.74,127.851 396,111.5C 394.334,97.6709 390.168,84.6709 383.5,72.5 Z"/></g>
<g><path style="opacity:0.989" fill="#4f473c" d="M 324.5,28.5 C 335.957,31.2831 344.957,37.6164 351.5,47.5C 360.025,49.4271 367.358,53.4271 373.5,59.5C 374.167,59.5 374.5,59.8333 374.5,60.5C 375.08,62.7488 376.413,64.4154 378.5,65.5C 378.738,67.4044 379.738,68.7377 381.5,69.5C 381.427,71.0269 382.094,72.0269 383.5,72.5C 390.168,84.6709 394.334,97.6709 396,111.5C 396.74,127.851 396.573,144.185 395.5,160.5C 394.521,163.625 394.187,166.958 394.5,170.5C 393.914,183.607 392.414,196.607 390,209.5C 387.835,187.849 385.835,166.183 384,144.5C 382.224,141.059 380.057,137.892 377.5,135C 367.182,128.584 357.682,121.084 349,112.5C 346.61,107.997 344.61,103.331 343,98.5C 337.233,106.253 329.733,111.753 320.5,115C 311.359,117.857 302.026,119.857 292.5,121C 277.111,122.174 261.777,123.84 246.5,126C 234.756,127.801 224.089,132.134 214.5,139C 211.943,141.892 209.776,145.059 208,148.5C 206.454,170.843 204.787,193.177 203,215.5C 199.929,197.268 197.763,178.934 196.5,160.5C 195.398,145.192 195.231,129.859 196,114.5C 197.989,93.196 205.989,74.5293 220,58.5C 249.316,29.9568 284.149,19.9568 324.5,28.5 Z"/></g>
<g><path style="opacity:0.997" fill="#d3d3d3" d="M 757.5,141.5 C 760.079,141.394 762.412,142.061 764.5,143.5C 765.436,147.735 765.769,152.069 765.5,156.5C 761.958,156.187 758.625,156.521 755.5,157.5C 755.5,179.167 755.5,200.833 755.5,222.5C 753.565,223.15 751.565,223.483 749.5,223.5C 747.987,233.536 744.487,242.869 739,251.5C 732.718,260.945 725.885,269.945 718.5,278.5C 706.624,283.008 694.291,285.341 681.5,285.5C 679.442,273.642 672.442,269.142 660.5,272C 651.3,277.468 649.133,284.968 654,294.5C 661.04,302.776 668.873,303.609 677.5,297C 679.471,294.857 680.804,292.357 681.5,289.5C 690.911,288.632 700.245,287.298 709.5,285.5C 678.98,314.609 647.313,315.943 614.5,289.5C 597.677,275.169 584.844,257.836 576,237.5C 574.203,232.977 573.036,228.31 572.5,223.5C 570.435,223.483 568.435,223.15 566.5,222.5C 566.5,200.833 566.5,179.167 566.5,157.5C 563.713,156.523 560.713,156.19 557.5,156.5C 557.5,152.167 557.5,147.833 557.5,143.5C 559.913,141.949 562.579,141.283 565.5,141.5C 567.029,152.951 569.196,164.284 572,175.5C 571.966,162.406 572.966,149.406 575,136.5C 584.969,128.093 596.136,121.593 608.5,117C 633.021,108.604 657.687,100.604 682.5,93C 690.058,90.5544 697.058,87.0544 703.5,82.5C 705.75,86.6682 708.25,90.6682 711,94.5C 719.296,101.127 727.296,108.127 735,115.5C 742.033,123.232 746.7,132.232 749,142.5C 749.333,154.5 749.667,166.5 750,178.5C 752.462,166.02 754.962,153.687 757.5,141.5 Z"/></g>
<g><path style="opacity:0.998" fill="#d3d3d3" d="M 394.5,170.5 C 395.497,192.327 395.831,214.327 395.5,236.5C 396.5,236.5 397.5,236.5 398.5,236.5C 398.16,238.679 397.16,240.512 395.5,242C 392.204,243.224 389.371,245.058 387,247.5C 384.731,259.253 381.231,270.586 376.5,281.5C 375.833,281.5 375.5,281.833 375.5,282.5C 372.01,285.415 368.01,287.582 363.5,289C 348.955,294.276 333.955,296.776 318.5,296.5C 317.104,285.447 310.77,280.614 299.5,282C 289.669,286.1 286.503,293.267 290,303.5C 295.771,311.894 303.271,313.727 312.5,309C 315.596,306.971 317.262,304.138 317.5,300.5C 336.168,299.978 354.168,296.311 371.5,289.5C 369.518,292.81 367.185,295.81 364.5,298.5C 336.294,330.926 301.961,339.759 261.5,325C 248.55,318.535 237.216,310.035 227.5,299.5C 215.391,283.866 207.724,266.199 204.5,246.5C 201.787,245.095 199.121,243.595 196.5,242C 194.393,240.736 193.393,238.903 193.5,236.5C 194.5,236.5 195.5,236.5 196.5,236.5C 196.831,213.994 196.497,191.66 195.5,169.5C 194.081,168.549 192.415,168.216 190.5,168.5C 190.298,166.05 190.631,163.717 191.5,161.5C 193.117,160.962 194.784,160.629 196.5,160.5C 197.763,178.934 199.929,197.268 203,215.5C 204.787,193.177 206.454,170.843 208,148.5C 209.776,145.059 211.943,141.892 214.5,139C 224.089,132.134 234.756,127.801 246.5,126C 261.777,123.84 277.111,122.174 292.5,121C 302.026,119.857 311.359,117.857 320.5,115C 329.733,111.753 337.233,106.253 343,98.5C 344.61,103.331 346.61,107.997 349,112.5C 357.682,121.084 367.182,128.584 377.5,135C 380.057,137.892 382.224,141.059 384,144.5C 385.835,166.183 387.835,187.849 390,209.5C 392.414,196.607 393.914,183.607 394.5,170.5 Z"/></g>
<g><path style="opacity:0.951" fill="#3c3d3c" d="M 551.5,156.5 C 556.305,157.487 561.305,157.821 566.5,157.5C 566.5,179.167 566.5,200.833 566.5,222.5C 559.913,224.461 552.913,225.128 545.5,224.5C 545.5,201.833 545.5,179.167 545.5,156.5C 547.5,156.5 549.5,156.5 551.5,156.5 Z"/></g>
<g><path style="opacity:0.949" fill="#3e3e3e" d="M 770.5,156.5 C 772.5,156.5 774.5,156.5 776.5,156.5C 776.5,179.167 776.5,201.833 776.5,224.5C 773.5,224.5 770.5,224.5 767.5,224.5C 765.106,253.425 750.106,272.591 722.5,282C 719.232,283.15 715.899,283.984 712.5,284.5C 711.209,284.263 710.209,284.596 709.5,285.5C 700.245,287.298 690.911,288.632 681.5,289.5C 680.804,292.357 679.471,294.857 677.5,297C 668.873,303.609 661.04,302.776 654,294.5C 649.133,284.968 651.3,277.468 660.5,272C 672.442,269.142 679.442,273.642 681.5,285.5C 694.291,285.341 706.624,283.008 718.5,278.5C 745.207,270.136 760.207,252.136 763.5,224.5C 760.302,225.036 757.635,224.369 755.5,222.5C 755.5,200.833 755.5,179.167 755.5,157.5C 760.695,157.821 765.695,157.487 770.5,156.5 Z"/></g>
<g><path style="opacity:0.944" fill="#cecece" d="M 395.5,160.5 C 397.216,160.629 398.883,160.962 400.5,161.5C 401.388,164.054 401.721,166.721 401.5,169.5C 399.833,169.5 398.167,169.5 396.5,169.5C 395.523,166.713 395.19,163.713 395.5,160.5 Z"/></g>
<g><path style="opacity:0.991" fill="#3d3d3d" d="M 185.5,168.5 C 188.625,169.479 191.958,169.813 195.5,169.5C 196.139,192.064 195.473,214.397 193.5,236.5C 187.5,236.5 181.5,236.5 175.5,236.5C 175.5,213.833 175.5,191.167 175.5,168.5C 178.833,168.5 182.167,168.5 185.5,168.5 Z"/></g>
<g><path style="opacity:0.964" fill="#3e3e3e" d="M 406.5,168.5 C 409.833,168.5 413.167,168.5 416.5,168.5C 416.5,191.167 416.5,213.833 416.5,236.5C 413.833,236.5 411.167,236.5 408.5,236.5C 406.788,261.593 394.455,279.259 371.5,289.5C 354.168,296.311 336.168,299.978 317.5,300.5C 317.262,304.138 315.596,306.971 312.5,309C 303.271,313.727 295.771,311.894 290,303.5C 286.503,293.267 289.669,286.1 299.5,282C 310.77,280.614 317.104,285.447 318.5,296.5C 333.955,296.776 348.955,294.276 363.5,289C 368.01,287.582 372.01,285.415 375.5,282.5C 376.167,282.5 376.5,282.167 376.5,281.5C 393.932,271.697 403.265,256.697 404.5,236.5C 402.5,236.5 400.5,236.5 398.5,236.5C 396.527,214.397 395.861,192.064 396.5,169.5C 398.167,169.5 399.833,169.5 401.5,169.5C 403.415,169.784 405.081,169.451 406.5,168.5 Z"/></g>
<g><path style="opacity:1" fill="#878787" d="M 195.5,169.5 C 196.497,191.66 196.831,213.994 196.5,236.5C 195.5,236.5 194.5,236.5 193.5,236.5C 195.473,214.397 196.139,192.064 195.5,169.5 Z"/></g>
<g><path style="opacity:1" fill="#898989" d="M 395.5,160.5 C 395.19,163.713 395.523,166.713 396.5,169.5C 395.861,192.064 396.527,214.397 398.5,236.5C 397.5,236.5 396.5,236.5 395.5,236.5C 395.831,214.327 395.497,192.327 394.5,170.5C 394.187,166.958 394.521,163.625 395.5,160.5 Z"/></g>
<g><path style="opacity:1" fill="#e76b5c" d="M 694.5,245.5 C 675.167,246.833 655.833,246.833 636.5,245.5C 655.817,241.501 675.151,241.501 694.5,245.5 Z"/></g>
<g><path style="opacity:1" fill="#eda59d" d="M 636.5,245.5 C 655.833,246.833 675.167,246.833 694.5,245.5C 699.399,246.378 699.732,248.045 695.5,250.5C 695.5,250.167 695.5,249.833 695.5,249.5C 695.611,248.883 695.944,248.383 696.5,248C 675.833,247.333 655.167,247.333 634.5,248C 635.056,248.383 635.389,248.883 635.5,249.5C 635.5,249.833 635.5,250.167 635.5,250.5C 631.396,247.773 631.73,246.107 636.5,245.5 Z"/></g>
<g><path style="opacity:1" fill="#fefcfc" d="M 695.5,249.5 C 680.375,258.226 664.375,260.392 647.5,256C 643.345,254.09 639.345,251.923 635.5,249.5C 635.389,248.883 635.056,248.383 634.5,248C 655.167,247.333 675.833,247.333 696.5,248C 695.944,248.383 695.611,248.883 695.5,249.5 Z"/></g>
<g><path style="opacity:1" fill="#e86e5f" d="M 635.5,249.5 C 639.345,251.923 643.345,254.09 647.5,256C 664.375,260.392 680.375,258.226 695.5,249.5C 695.5,249.833 695.5,250.167 695.5,250.5C 683.85,262.328 669.85,266.828 653.5,264C 646.467,260.79 640.467,256.29 635.5,250.5C 635.5,250.167 635.5,249.833 635.5,249.5 Z"/></g>
<g><path style="opacity:1" fill="#fcfcfc" d="M 267.5,259.5 C 289.836,259.333 312.169,259.5 334.5,260C 317.686,270.673 299.686,273.34 280.5,268C 275.385,266.126 271.051,263.292 267.5,259.5 Z"/></g>
<g><path style="opacity:0.999" fill="#c2c2c2" d="M 712.5,284.5 C 712.5,289.167 712.5,293.833 712.5,298.5C 704.133,316.368 691.133,329.868 673.5,339C 666.273,341.809 658.939,342.142 651.5,340C 634.531,331.533 622.198,318.7 614.5,301.5C 614.5,297.5 614.5,293.5 614.5,289.5C 647.313,315.943 678.98,314.609 709.5,285.5C 710.209,284.596 711.209,284.263 712.5,284.5 Z"/></g>
<g><path style="opacity:0.998" fill="#d3d3d3" d="M 712.5,298.5 C 713.445,303.405 713.779,308.405 713.5,313.5C 713.4,322.016 713.4,330.683 713.5,339.5C 706.316,353.208 697.649,365.875 687.5,377.5C 684.908,381.712 683.075,386.378 682,391.5C 673.626,425.707 667.959,460.373 665,495.5C 664.751,496.624 664.251,497.624 663.5,498.5C 659.889,465.957 654.722,433.624 648,401.5C 645.749,394.246 643.749,386.913 642,379.5C 641.617,378.944 641.117,378.611 640.5,378.5C 630.351,366.875 621.684,354.208 614.5,340.5C 614.5,331.5 614.5,322.5 614.5,313.5C 614.5,309.5 614.5,305.5 614.5,301.5C 622.198,318.7 634.531,331.533 651.5,340C 658.939,342.142 666.273,341.809 673.5,339C 691.133,329.868 704.133,316.368 712.5,298.5 Z"/></g>
<g><path style="opacity:1" fill="#b0b0b0" d="M 364.5,298.5 C 364.482,306.851 364.815,315.184 365.5,323.5C 354.204,341.96 338.87,356.127 319.5,366C 296.898,374.683 275.898,371.683 256.5,357C 244.85,347.524 234.85,336.691 226.5,324.5C 226.884,316.169 227.218,307.836 227.5,299.5C 237.216,310.035 248.55,318.535 261.5,325C 301.961,339.759 336.294,330.926 364.5,298.5 Z"/></g>
<g><path style="opacity:0.958" fill="#cddcf4" d="M 614.5,313.5 C 614.5,322.5 614.5,331.5 614.5,340.5C 610.563,333.626 606.897,326.626 603.5,319.5C 606.13,315.683 609.797,313.683 614.5,313.5 Z"/></g>
<g><path style="opacity:0.959" fill="#cddcf5" d="M 713.5,313.5 C 716.643,314.207 719.643,315.373 722.5,317C 723.252,317.671 723.586,318.504 723.5,319.5C 720.677,326.48 717.343,333.146 713.5,339.5C 713.4,330.683 713.4,322.016 713.5,313.5 Z"/></g>
<g><path style="opacity:0.994" fill="#eef3fd" d="M 723.5,319.5 C 727.25,326.002 731.25,332.335 735.5,338.5C 738.395,344.288 740.728,350.288 742.5,356.5C 742.667,367.838 742.5,379.172 742,390.5C 741.871,396.914 741.204,403.247 740,409.5C 735.39,401.726 729.557,395.059 722.5,389.5C 717.219,385.854 711.552,382.687 705.5,380C 699.344,378.009 693.344,377.176 687.5,377.5C 697.649,365.875 706.316,353.208 713.5,339.5C 717.343,333.146 720.677,326.48 723.5,319.5 Z"/></g>
<g><path style="opacity:0.995" fill="#eff4fe" d="M 603.5,319.5 C 606.897,326.626 610.563,333.626 614.5,340.5C 621.684,354.208 630.351,366.875 640.5,378.5C 627.309,377.26 615.642,380.926 605.5,389.5C 597.396,394.772 591.23,401.772 587,410.5C 585.95,392.358 585.117,374.358 584.5,356.5C 586.946,349.607 589.946,342.94 593.5,336.5C 597.071,331.033 600.404,325.367 603.5,319.5 Z"/></g>
<g><path style="opacity:0.998" fill="#d3d3d3" d="M 365.5,323.5 C 365.218,328.927 365.551,334.26 366.5,339.5C 365.167,344.5 363.833,349.5 362.5,354.5C 362.649,353.448 362.483,352.448 362,351.5C 348.674,380.166 328.84,403.332 302.5,421C 300.452,422.226 300.119,423.726 301.5,425.5C 298.5,425.5 295.5,425.5 292.5,425.5C 292.719,424.325 292.386,423.325 291.5,422.5C 261.667,403.346 240.333,377.346 227.5,344.5C 226.976,342.694 226.309,341.028 225.5,339.5C 226.254,334.537 226.587,329.537 226.5,324.5C 234.85,336.691 244.85,347.524 256.5,357C 275.898,371.683 296.898,374.683 319.5,366C 338.87,356.127 354.204,341.96 365.5,323.5 Z"/></g>
<g><path style="opacity:0.023" fill="#000000" d="M 593.5,336.5 C 589.946,342.94 586.946,349.607 584.5,356.5C 580.854,358.817 577.52,361.484 574.5,364.5C 545.612,370.306 517.278,378.139 489.5,388C 486.751,389.123 484.251,390.623 482,392.5C 478.066,399.364 475.566,406.697 474.5,414.5C 458.1,409.201 441.433,403.701 424.5,398C 415.234,395.188 405.9,392.688 396.5,390.5C 390.5,380.167 384.5,369.833 378.5,359.5C 389.937,359.035 401.271,359.868 412.5,362C 430.274,366.318 447.774,371.484 465,377.5C 472.719,370.052 481.552,364.219 491.5,360C 515.358,351.381 539.691,344.381 564.5,339C 574.071,337.048 583.737,336.214 593.5,336.5 Z"/></g>
<g><path style="opacity:0.064" fill="#000000" d="M 213.5,359.5 C 207.5,369.833 201.5,380.167 195.5,390.5C 166.009,397.497 137.343,406.997 109.5,419C 99.3511,423.572 89.6844,428.905 80.5,435C 72.6397,439.852 67.473,446.686 65,455.5C 56.2626,513.065 49.096,570.732 43.5,628.5C 74.9678,646.892 108.634,659.726 144.5,667C 193.293,677.329 242.627,682.496 292.5,682.5C 294.833,686.5 297.167,686.5 299.5,682.5C 354.958,682.616 409.625,676.116 463.5,663C 493.948,655.635 522.448,643.802 549,627.5C 547.834,613.499 546.334,599.499 544.5,585.5C 551.141,586.962 557.808,588.295 564.5,589.5C 570.61,591.323 576.943,592.657 583.5,593.5C 645.1,605.348 706.434,603.848 767.5,589C 796.315,582.464 824.315,573.464 851.5,562C 858.905,558.548 866.072,554.715 873,550.5C 870.428,503.928 863.761,457.928 853,412.5C 851.457,405.87 849.123,399.537 846,393.5C 842.919,390.707 839.419,388.54 835.5,387C 809.916,378.271 783.916,371.104 757.5,365.5C 754.825,364.645 752.158,363.478 749.5,362C 747.499,359.675 745.166,357.842 742.5,356.5C 740.728,350.288 738.395,344.288 735.5,338.5C 749.116,336.028 762.783,335.861 776.5,338C 802.353,343.174 827.686,350.174 852.5,359C 874.91,367.076 890.41,382.243 899,404.5C 906.496,426.976 911.829,449.976 915,473.5C 918.855,496.695 921.355,520.028 922.5,543.5C 924.227,569.193 914.894,589.693 894.5,605C 871.982,617.397 848.315,627.064 823.5,634C 760.471,653.254 696.137,660.254 630.5,655C 619.263,654.011 608.097,652.511 597,650.5C 596.167,650.833 595.333,651.167 594.5,651.5C 590.11,664.726 582.11,675.226 570.5,683C 545.995,697.172 519.995,707.839 492.5,715C 374.899,744.138 256.899,745.805 138.5,720C 103.395,712.606 70.3955,699.94 39.5,682C 24.3976,670.637 15.8976,655.471 14,636.5C 13.2391,623.804 13.5725,611.138 15,598.5C 19.9296,556.729 25.5963,515.063 32,473.5C 35.9395,448.257 48.1062,428.091 68.5,413C 79.1872,405.653 90.5206,399.319 102.5,394C 138.278,378.574 175.278,367.074 213.5,359.5 Z"/></g>
<g><path style="opacity:0.998" fill="#575757" d="M 225.5,339.5 C 226.309,341.028 226.976,342.694 227.5,344.5C 234.781,382.907 242.448,421.24 250.5,459.5C 255.565,485.011 260.898,510.344 266.5,535.5C 266.986,541.594 267.986,547.594 269.5,553.5C 277.91,595.881 286.576,638.215 295.5,680.5C 295.869,682.993 295.203,683.66 293.5,682.5C 290.745,679.083 288.412,675.417 286.5,671.5C 253.328,619.816 219.661,568.483 185.5,517.5C 182.26,512.693 179.26,507.693 176.5,502.5C 181.481,498.852 186.147,494.852 190.5,490.5C 195.936,486.91 201.27,483.077 206.5,479C 194.954,470.613 183.287,462.447 171.5,454.5C 168.208,452.542 165.208,450.209 162.5,447.5C 173.737,428.7 184.737,409.7 195.5,390.5C 201.5,380.167 207.5,369.833 213.5,359.5C 217.515,352.798 221.515,346.131 225.5,339.5 Z"/></g>
<g><path style="opacity:0.999" fill="#575757" d="M 366.5,339.5 C 370.5,346.167 374.5,352.833 378.5,359.5C 384.5,369.833 390.5,380.167 396.5,390.5C 407.224,409.609 418.224,428.609 429.5,447.5C 426.69,450.072 423.69,452.406 420.5,454.5C 408.713,462.447 397.046,470.613 385.5,479C 390.661,482.666 395.661,486.499 400.5,490.5C 405.622,494.449 410.622,498.616 415.5,503C 412.61,507.957 409.61,512.79 406.5,517.5C 372.339,568.483 338.672,619.816 305.5,671.5C 303.588,675.417 301.255,679.083 298.5,682.5C 296.797,683.66 296.131,682.993 296.5,680.5C 299.167,667.5 301.833,654.5 304.5,641.5C 306.626,632.202 308.626,622.869 310.5,613.5C 315.629,587.855 320.629,562.188 325.5,536.5C 330.658,513.712 335.325,490.712 339.5,467.5C 340.531,465.039 341.198,462.373 341.5,459.5C 348.883,424.585 355.883,389.585 362.5,354.5C 363.833,349.5 365.167,344.5 366.5,339.5 Z"/></g>
<g><path style="opacity:1" fill="#eef3fd" d="M 227.5,344.5 C 240.333,377.346 261.667,403.346 291.5,422.5C 292.386,423.325 292.719,424.325 292.5,425.5C 289.984,425.755 287.65,426.589 285.5,428C 278.001,434.002 270.668,440.168 263.5,446.5C 258.806,450.527 254.473,454.86 250.5,459.5C 242.448,421.24 234.781,382.907 227.5,344.5 Z"/></g>
<g><path style="opacity:1" fill="#eef3fd" d="M 362.5,354.5 C 355.883,389.585 348.883,424.585 341.5,459.5C 337.82,454.821 333.486,450.821 328.5,447.5C 320.685,438.683 311.685,431.349 301.5,425.5C 300.119,423.726 300.452,422.226 302.5,421C 328.84,403.332 348.674,380.166 362,351.5C 362.483,352.448 362.649,353.448 362.5,354.5 Z"/></g>
<g><path style="opacity:1" fill="#575757" d="M 742.5,356.5 C 745.166,357.842 747.499,359.675 749.5,362C 752.158,363.478 754.825,364.645 757.5,365.5C 756.448,365.351 755.448,365.517 754.5,366C 773.773,382.936 791.273,401.436 807,421.5C 807.591,422.483 807.257,423.15 806,423.5C 802.729,424.187 799.895,425.52 797.5,427.5C 777.949,433.295 758.615,439.795 739.5,447C 744.066,450.414 748.732,453.58 753.5,456.5C 754.94,458.388 756.606,460.055 758.5,461.5C 757.075,464.688 755.408,467.688 753.5,470.5C 731.559,510.076 706.892,547.742 679.5,583.5C 675.234,588.941 670.734,594.274 666,599.5C 665.536,598.906 665.369,598.239 665.5,597.5C 683.353,528.756 701.519,460.089 720,391.5C 720.417,390.244 721.25,389.577 722.5,389.5C 729.557,395.059 735.39,401.726 740,409.5C 741.204,403.247 741.871,396.914 742,390.5C 742.5,379.172 742.667,367.838 742.5,356.5 Z"/></g>
<g><path style="opacity:1" fill="#575758" d="M 584.5,356.5 C 585.117,374.358 585.95,392.358 587,410.5C 591.23,401.772 597.396,394.772 605.5,389.5C 607.255,391.761 608.422,394.428 609,397.5C 626.99,464.46 644.823,531.46 662.5,598.5C 662.607,600.379 662.107,600.712 661,599.5C 655.551,593.896 650.717,587.896 646.5,581.5C 619.429,546.375 595.096,509.375 573.5,470.5C 572.058,467.78 570.725,464.946 569.5,462C 570.65,460.019 571.984,458.186 573.5,456.5C 578.282,453.601 582.949,450.434 587.5,447C 568.651,439.995 549.651,433.495 530.5,427.5C 527.495,425.603 524.162,424.27 520.5,423.5C 519.479,422.998 519.312,422.332 520,421.5C 536.826,401.149 554.992,382.149 574.5,364.5C 577.52,361.484 580.854,358.817 584.5,356.5 Z"/></g>
<g><path style="opacity:0.999" fill="#6a6a6a" d="M 574.5,364.5 C 554.992,382.149 536.826,401.149 520,421.5C 519.312,422.332 519.479,422.998 520.5,423.5C 524.162,424.27 527.495,425.603 530.5,427.5C 527.527,431.14 524.194,434.473 520.5,437.5C 506.003,428.252 490.67,420.585 474.5,414.5C 475.566,406.697 478.066,399.364 482,392.5C 484.251,390.623 486.751,389.123 489.5,388C 517.278,378.139 545.612,370.306 574.5,364.5 Z"/></g>
<g><path style="opacity:1" fill="#6b6b6b" d="M 757.5,365.5 C 783.916,371.104 809.916,378.271 835.5,387C 839.419,388.54 842.919,390.707 846,393.5C 849.123,399.537 851.457,405.87 853,412.5C 863.761,457.928 870.428,503.928 873,550.5C 866.072,554.715 858.905,558.548 851.5,562C 824.315,573.464 796.315,582.464 767.5,589C 706.434,603.848 645.1,605.348 583.5,593.5C 578.109,557.598 572.943,521.598 568,485.5C 566.382,474.358 563.215,463.692 558.5,453.5C 558.624,452.893 558.957,452.56 559.5,452.5C 564.109,454.036 568.776,455.37 573.5,456.5C 571.984,458.186 570.65,460.019 569.5,462C 570.725,464.946 572.058,467.78 573.5,470.5C 570.817,471.669 569.651,473.669 570,476.5C 592.097,514.049 617.597,549.049 646.5,581.5C 650.717,587.896 655.551,593.896 661,599.5C 662.107,600.712 662.607,600.379 662.5,598.5C 663.222,598.918 663.722,599.584 664,600.5C 664.232,599.263 664.732,598.263 665.5,597.5C 665.369,598.239 665.536,598.906 666,599.5C 670.734,594.274 675.234,588.941 679.5,583.5C 709.26,549.726 735.593,513.393 758.5,474.5C 757.025,472.929 755.358,471.595 753.5,470.5C 755.408,467.688 757.075,464.688 758.5,461.5C 756.606,460.055 754.94,458.388 753.5,456.5C 771.586,450.971 789.586,445.138 807.5,439C 804.331,434.999 800.997,431.166 797.5,427.5C 799.895,425.52 802.729,424.187 806,423.5C 807.257,423.15 807.591,422.483 807,421.5C 791.273,401.436 773.773,382.936 754.5,366C 755.448,365.517 756.448,365.351 757.5,365.5 Z"/></g>
<g><path style="opacity:1" fill="#dfe9fd" d="M 640.5,378.5 C 641.117,378.611 641.617,378.944 642,379.5C 643.749,386.913 645.749,394.246 648,401.5C 654.722,433.624 659.889,465.957 663.5,498.5C 664.251,497.624 664.751,496.624 665,495.5C 667.959,460.373 673.626,425.707 682,391.5C 683.075,386.378 684.908,381.712 687.5,377.5C 693.344,377.176 699.344,378.009 705.5,380C 711.552,382.687 717.219,385.854 722.5,389.5C 721.25,389.577 720.417,390.244 720,391.5C 701.519,460.089 683.353,528.756 665.5,597.5C 664.732,598.263 664.232,599.263 664,600.5C 663.722,599.584 663.222,598.918 662.5,598.5C 644.823,531.46 626.99,464.46 609,397.5C 608.422,394.428 607.255,391.761 605.5,389.5C 615.642,380.926 627.309,377.26 640.5,378.5 Z"/></g>
<g><path style="opacity:0.999" fill="#606060" d="M 195.5,390.5 C 184.737,409.7 173.737,428.7 162.5,447.5C 165.208,450.209 168.208,452.542 171.5,454.5C 168.638,459.721 165.638,464.888 162.5,470C 172.016,476.697 181.349,483.53 190.5,490.5C 186.147,494.852 181.481,498.852 176.5,502.5C 179.26,507.693 182.26,512.693 185.5,517.5C 182.79,519.945 179.956,522.278 177,524.5C 176.333,525.167 176.333,525.833 177,526.5C 213.363,575.017 249.863,623.351 286.5,671.5C 288.412,675.417 290.745,679.083 293.5,682.5C 293.167,682.5 292.833,682.5 292.5,682.5C 242.627,682.496 193.293,677.329 144.5,667C 108.634,659.726 74.9678,646.892 43.5,628.5C 49.096,570.732 56.2626,513.065 65,455.5C 67.473,446.686 72.6397,439.852 80.5,435C 89.6844,428.905 99.3511,423.572 109.5,419C 137.343,406.997 166.009,397.497 195.5,390.5 Z"/></g>
<g><path style="opacity:1" fill="#606060" d="M 396.5,390.5 C 405.9,392.688 415.234,395.188 424.5,398C 441.433,403.701 458.1,409.201 474.5,414.5C 490.67,420.585 506.003,428.252 520.5,437.5C 519.402,438.397 519.402,439.23 520.5,440C 523.004,440.698 525.337,441.531 527.5,442.5C 527.062,442.435 526.728,442.601 526.5,443C 537.38,452.919 544.546,465.085 548,479.5C 553.741,516.193 559.241,552.859 564.5,589.5C 557.808,588.295 551.141,586.962 544.5,585.5C 546.334,599.499 547.834,613.499 549,627.5C 522.448,643.802 493.948,655.635 463.5,663C 409.625,676.116 354.958,682.616 299.5,682.5C 299.167,682.5 298.833,682.5 298.5,682.5C 301.255,679.083 303.588,675.417 305.5,671.5C 342.688,623.133 379.355,574.3 415.5,525C 412.429,522.482 409.429,519.982 406.5,517.5C 409.61,512.79 412.61,507.957 415.5,503C 410.622,498.616 405.622,494.449 400.5,490.5C 410.287,483.886 419.954,477.053 429.5,470C 426.362,464.888 423.362,459.721 420.5,454.5C 423.69,452.406 426.69,450.072 429.5,447.5C 418.224,428.609 407.224,409.609 396.5,390.5 Z"/></g>
<g><path style="opacity:1" fill="#de0201" d="M 292.5,425.5 C 295.5,425.5 298.5,425.5 301.5,425.5C 311.685,431.349 320.685,438.683 328.5,447.5C 327.89,448.391 327.557,449.391 327.5,450.5C 324.756,456.318 321.256,461.651 317,466.5C 316.833,468.167 316.667,469.833 316.5,471.5C 318.742,489.192 321.075,506.858 323.5,524.5C 321.391,539.268 317.558,553.601 312,567.5C 309.723,574.085 306.057,575.085 301,570.5C 296,558.499 292,546.165 289,533.5C 283.86,514.276 279.36,494.942 275.5,475.5C 275.665,472.482 275.498,469.482 275,466.5C 270.744,461.651 267.244,456.318 264.5,450.5C 264.167,449.167 263.833,447.833 263.5,446.5C 270.668,440.168 278.001,434.002 285.5,428C 287.65,426.589 289.984,425.755 292.5,425.5 Z"/></g>
<g><path style="opacity:1" fill="#505561" d="M 530.5,427.5 C 549.651,433.495 568.651,439.995 587.5,447C 582.949,450.434 578.282,453.601 573.5,456.5C 568.776,455.37 564.109,454.036 559.5,452.5C 549.015,448.874 538.348,445.54 527.5,442.5C 525.337,441.531 523.004,440.698 520.5,440C 519.402,439.23 519.402,438.397 520.5,437.5C 524.194,434.473 527.527,431.14 530.5,427.5 Z"/></g>
<g><path style="opacity:1" fill="#525763" d="M 797.5,427.5 C 800.997,431.166 804.331,434.999 807.5,439C 789.586,445.138 771.586,450.971 753.5,456.5C 748.732,453.58 744.066,450.414 739.5,447C 758.615,439.795 777.949,433.295 797.5,427.5 Z"/></g>
<g><path style="opacity:1" fill="#676767" d="M 527.5,442.5 C 538.348,445.54 549.015,448.874 559.5,452.5C 558.957,452.56 558.624,452.893 558.5,453.5C 563.215,463.692 566.382,474.358 568,485.5C 572.943,521.598 578.109,557.598 583.5,593.5C 576.943,592.657 570.61,591.323 564.5,589.5C 559.241,552.859 553.741,516.193 548,479.5C 544.546,465.085 537.38,452.919 526.5,443C 526.728,442.601 527.062,442.435 527.5,442.5 Z"/></g>
<g><path style="opacity:1" fill="#bbbdc0" d="M 328.5,447.5 C 333.486,450.821 337.82,454.821 341.5,459.5C 341.198,462.373 340.531,465.039 339.5,467.5C 339.657,466.127 339.49,464.793 339,463.5C 335.301,458.973 331.468,454.639 327.5,450.5C 327.557,449.391 327.89,448.391 328.5,447.5 Z"/></g>
<g><path style="opacity:1" fill="#4a4e5a" d="M 171.5,454.5 C 183.287,462.447 194.954,470.613 206.5,479C 201.27,483.077 195.936,486.91 190.5,490.5C 181.349,483.53 172.016,476.697 162.5,470C 165.638,464.888 168.638,459.721 171.5,454.5 Z"/></g>
<g><path style="opacity:1" fill="#d6d5d7" d="M 264.5,450.5 C 267.244,456.318 270.744,461.651 275,466.5C 275.498,469.482 275.665,472.482 275.5,475.5C 273.193,487.277 271.526,499.277 270.5,511.5C 269.566,514.656 268.899,517.989 268.5,521.5C 263.137,502.89 258.137,484.056 253.5,465C 253.625,463.373 254.125,461.873 255,460.5C 257.952,456.901 261.118,453.567 264.5,450.5 Z"/></g>
<g><path style="opacity:1" fill="#4a4e5a" d="M 420.5,454.5 C 423.362,459.721 426.362,464.888 429.5,470C 419.954,477.053 410.287,483.886 400.5,490.5C 395.661,486.499 390.661,482.666 385.5,479C 397.046,470.613 408.713,462.447 420.5,454.5 Z"/></g>
<g><path style="opacity:1" fill="#dedfe0" d="M 327.5,450.5 C 331.468,454.639 335.301,458.973 339,463.5C 339.49,464.793 339.657,466.127 339.5,467.5C 335.325,490.712 330.658,513.712 325.5,536.5C 325.283,532.295 324.617,528.295 323.5,524.5C 321.075,506.858 318.742,489.192 316.5,471.5C 316.667,469.833 316.833,468.167 317,466.5C 321.256,461.651 324.756,456.318 327.5,450.5 Z"/></g>
<g><path style="opacity:1" fill="#535763" d="M 573.5,470.5 C 595.096,509.375 619.429,546.375 646.5,581.5C 617.597,549.049 592.097,514.049 570,476.5C 569.651,473.669 570.817,471.669 573.5,470.5 Z"/></g>
<g><path style="opacity:1" fill="#525763" d="M 753.5,470.5 C 755.358,471.595 757.025,472.929 758.5,474.5C 735.593,513.393 709.26,549.726 679.5,583.5C 706.892,547.742 731.559,510.076 753.5,470.5 Z"/></g>
<g><path style="opacity:1" fill="#d50201" d="M 275.5,475.5 C 279.36,494.942 283.86,514.276 289,533.5C 292,546.165 296,558.499 301,570.5C 306.057,575.085 309.723,574.085 312,567.5C 317.558,553.601 321.391,539.268 323.5,524.5C 324.617,528.295 325.283,532.295 325.5,536.5C 320.629,562.188 315.629,587.855 310.5,613.5C 307.008,614.763 303.841,614.763 301,613.5C 298.861,608.313 296.028,603.147 292.5,598C 293.815,596.605 293.481,595.605 291.5,595C 291.957,594.586 292.291,594.086 292.5,593.5C 291.005,590.344 289.671,587.511 288.5,585C 289.307,582.4 288.64,580.066 286.5,578C 287.727,576.413 287.394,575.079 285.5,574C 285.5,572.333 285.5,570.667 285.5,569C 283.665,568.072 283.332,566.906 284.5,565.5C 282.862,564.295 282.529,562.962 283.5,561.5C 281.862,560.295 281.529,558.962 282.5,557.5C 281.595,555.362 280.595,553.195 279.5,551C 280.727,549.413 280.394,548.079 278.5,547C 278.833,546.667 279.167,546.333 279.5,546C 278.617,542.45 277.284,539.117 275.5,536C 276.727,534.413 276.394,533.079 274.5,532C 275.727,530.413 275.394,529.079 273.5,528C 274.727,526.413 274.394,525.079 272.5,524C 273.727,522.413 273.394,521.079 271.5,520C 272.727,518.413 272.394,517.079 270.5,516C 270.966,514.701 270.966,513.201 270.5,511.5C 271.526,499.277 273.193,487.277 275.5,475.5 Z"/></g>
<g><path style="opacity:1" fill="#c2c2c4" d="M 263.5,446.5 C 263.833,447.833 264.167,449.167 264.5,450.5C 261.118,453.567 257.952,456.901 255,460.5C 254.125,461.873 253.625,463.373 253.5,465C 258.137,484.056 263.137,502.89 268.5,521.5C 267.704,526.147 267.037,530.814 266.5,535.5C 260.898,510.344 255.565,485.011 250.5,459.5C 254.473,454.86 258.806,450.527 263.5,446.5 Z"/></g>
<g><path style="opacity:1" fill="#c80100" d="M 270.5,511.5 C 270.966,513.201 270.966,514.701 270.5,516C 272.394,517.079 272.727,518.413 271.5,520C 273.394,521.079 273.727,522.413 272.5,524C 274.394,525.079 274.727,526.413 273.5,528C 275.394,529.079 275.727,530.413 274.5,532C 276.394,533.079 276.727,534.413 275.5,536C 277.284,539.117 278.617,542.45 279.5,546C 279.167,546.333 278.833,546.667 278.5,547C 280.394,548.079 280.727,549.413 279.5,551C 280.595,553.195 281.595,555.362 282.5,557.5C 281.529,558.962 281.862,560.295 283.5,561.5C 282.529,562.962 282.862,564.295 284.5,565.5C 283.332,566.906 283.665,568.072 285.5,569C 285.5,570.667 285.5,572.333 285.5,574C 287.394,575.079 287.727,576.413 286.5,578C 288.64,580.066 289.307,582.4 288.5,585C 289.671,587.511 291.005,590.344 292.5,593.5C 292.291,594.086 291.957,594.586 291.5,595C 293.481,595.605 293.815,596.605 292.5,598C 296.028,603.147 298.861,608.313 301,613.5C 303.841,614.763 307.008,614.763 310.5,613.5C 308.626,622.869 306.626,632.202 304.5,641.5C 302.139,640.565 299.972,639.232 298,637.5C 294.054,632.008 291.054,626.008 289,619.5C 283.057,600.005 277.724,580.338 273,560.5C 272.564,557.602 271.397,555.269 269.5,553.5C 267.986,547.594 266.986,541.594 266.5,535.5C 267.037,530.814 267.704,526.147 268.5,521.5C 268.899,517.989 269.566,514.656 270.5,511.5 Z"/></g>
<g><path style="opacity:1" fill="#4a4e5a" d="M 185.5,517.5 C 219.661,568.483 253.328,619.816 286.5,671.5C 249.863,623.351 213.363,575.017 177,526.5C 176.333,525.833 176.333,525.167 177,524.5C 179.956,522.278 182.79,519.945 185.5,517.5 Z"/></g>
<g><path style="opacity:1" fill="#4a4e5a" d="M 406.5,517.5 C 409.429,519.982 412.429,522.482 415.5,525C 379.355,574.3 342.688,623.133 305.5,671.5C 338.672,619.816 372.339,568.483 406.5,517.5 Z"/></g>
<g><path style="opacity:1" fill="#b90402" d="M 269.5,553.5 C 271.397,555.269 272.564,557.602 273,560.5C 277.724,580.338 283.057,600.005 289,619.5C 291.054,626.008 294.054,632.008 298,637.5C 299.972,639.232 302.139,640.565 304.5,641.5C 301.833,654.5 299.167,667.5 296.5,680.5C 296.167,680.5 295.833,680.5 295.5,680.5C 286.576,638.215 277.91,595.881 269.5,553.5 Z"/></g>
<g><path style="opacity:0.722" fill="#802e28" d="M 295.5,680.5 C 295.833,680.5 296.167,680.5 296.5,680.5C 296.131,682.993 296.797,683.66 298.5,682.5C 298.833,682.5 299.167,682.5 299.5,682.5C 297.167,686.5 294.833,686.5 292.5,682.5C 292.833,682.5 293.167,682.5 293.5,682.5C 295.203,683.66 295.869,682.993 295.5,680.5 Z"/></g>
</svg>
