<?xml version="1.0" standalone="no"?>
<!DOCTYPE svg PUBLIC "-//W3C//DTD SVG 20010904//EN"
 "http://www.w3.org/TR/2001/REC-SVG-20010904/DTD/svg10.dtd">
<svg version="1.0" xmlns="http://www.w3.org/2000/svg"
 width="352.000000pt" height="100.000000pt" viewBox="0 0 352.000000 100.000000"
 preserveAspectRatio="xMidYMid meet">

<g transform="translate(0.000000,100.000000) scale(0.100000,-0.100000)"
fill="#000000" stroke="none">
<path d="M96 909 l-26 -20 0 -383 c0 -377 0 -383 21 -402 20 -18 41 -19 401
-19 l380 0 24 28 24 28 0 365 0 366 -29 29 -29 29 -370 0 c-358 0 -370 -1
-396 -21z m566 -57 c78 -38 149 -111 184 -187 28 -61 44 -155 25 -155 -6 0
-11 11 -11 25 0 44 -40 132 -81 178 -60 69 -134 101 -234 101 -60 0 -92 -5
-126 -20 -92 -43 -161 -128 -184 -228 l-11 -51 -62 -3 c-59 -3 -62 -2 -62 20
0 40 27 127 53 171 29 50 100 117 148 143 67 35 113 44 205 41 79 -2 100 -7
156 -35z m10 -75 c92 -43 159 -128 174 -224 9 -60 -9 -54 -23 8 -31 130 -160
205 -291 170 -60 -17 -136 -92 -152 -151 -7 -25 -14 -51 -16 -57 -2 -9 -24
-13 -65 -13 l-62 0 7 43 c31 196 246 309 428 224z m29 -75 c38 -20 62 -41 82
-73 30 -50 47 -119 28 -119 -6 0 -11 10 -11 23 0 36 -42 98 -80 118 -76 41
-173 10 -210 -66 -11 -23 -20 -49 -20 -58 0 -14 -10 -17 -55 -17 -50 0 -55 2
-55 23 0 27 35 104 58 131 9 10 40 29 67 42 69 33 129 31 196 -4z m-573 -259
c7 -34 26 -79 46 -109 129 -191 422 -180 536 20 17 28 33 72 36 99 l7 47 63 0
c60 0 64 -1 64 -23 0 -41 -31 -131 -62 -179 -40 -63 -89 -105 -168 -142 -58
-28 -74 -31 -160 -31 -82 0 -103 4 -152 27 -76 35 -121 70 -162 127 -36 48
-76 152 -76 196 0 45 16 27 28 -32z m22 35 c0 -13 11 -46 24 -75 55 -117 197
-164 315 -104 64 33 121 115 121 176 0 24 2 25 66 25 l67 0 -7 -41 c-16 -98
-101 -202 -193 -233 -59 -20 -157 -20 -216 0 -62 21 -130 83 -161 147 -30 62
-44 127 -27 127 6 0 11 -10 11 -22z m38 -22 c14 -52 66 -102 118 -112 78 -14
165 44 180 121 6 35 6 35 60 35 49 0 54 -2 54 -22 -1 -37 -35 -102 -71 -136
-19 -18 -57 -40 -86 -49 -122 -39 -254 42 -278 170 -10 52 8 47 23 -7z"/>
<path d="M1430 796 l0 -46 51 0 50 0 -3 43 -3 42 -47 3 -48 3 0 -45z"/>
<path d="M1150 701 c-69 -14 -100 -50 -100 -115 0 -60 35 -84 188 -125 48 -13
54 -33 17 -57 -33 -22 -88 -11 -112 21 -16 21 -23 23 -60 18 -55 -7 -56 -29
-4 -76 79 -71 244 -58 286 23 36 70 0 137 -86 160 -100 26 -115 30 -128 39 -8
5 -11 16 -8 25 10 25 99 22 122 -4 10 -11 25 -18 34 -16 9 2 28 7 44 10 27 6
27 7 12 36 -8 16 -28 36 -43 44 -35 18 -117 26 -162 17z"/>
<path d="M1754 699 c-17 -5 -37 -16 -44 -24 -17 -21 -30 -19 -30 5 0 17 -7 20
-45 20 l-45 0 0 -185 0 -185 49 0 49 0 4 131 c3 123 4 132 27 150 28 23 64 25
82 3 8 -10 14 -60 17 -150 l5 -134 42 0 c30 0 45 5 49 16 3 9 6 66 6 128 0
106 1 114 24 135 30 28 66 24 83 -9 8 -16 13 -69 13 -147 l0 -123 51 0 50 0
-3 149 c-3 133 -5 153 -24 178 -42 56 -144 63 -189 13 -18 -19 -18 -19 -47 5
-16 14 -35 25 -41 25 -7 0 -21 2 -32 4 -11 3 -34 0 -51 -5z"/>
<path d="M2285 701 c-45 -11 -73 -32 -89 -66 -14 -27 -13 -31 2 -37 33 -13 72
-8 92 12 24 24 82 27 100 5 21 -26 7 -49 -35 -58 -116 -25 -146 -38 -165 -70
-11 -18 -20 -42 -20 -55 0 -39 29 -83 65 -98 46 -19 82 -17 133 6 37 17 44 17
48 5 4 -10 21 -15 55 -15 48 0 48 0 39 26 -6 14 -10 76 -10 138 0 128 -11 171
-49 190 -33 18 -127 27 -166 17z m115 -227 c0 -37 -15 -60 -50 -74 -25 -10
-34 -10 -55 4 -45 30 -27 71 38 86 58 14 67 12 67 -16z"/>
<path d="M2636 700 c-56 -11 -96 -57 -96 -111 0 -65 29 -85 188 -128 23 -7 42
-17 42 -24 -1 -29 -20 -42 -66 -42 -38 0 -50 5 -67 27 -20 24 -27 26 -64 21
-53 -7 -56 -28 -11 -72 39 -38 96 -55 164 -48 94 10 144 54 144 127 0 42 -44
85 -101 100 -128 33 -134 35 -134 55 0 17 8 20 51 23 40 2 54 -1 68 -17 14
-15 26 -19 50 -14 17 3 35 9 40 14 14 12 -14 58 -44 74 -34 17 -116 25 -164
15z"/>
<path d="M3060 703 c-8 -3 -25 -15 -37 -26 l-23 -20 0 21 c0 19 -5 22 -45 22
l-45 0 0 -185 0 -185 49 0 49 0 4 125 c3 142 12 160 76 160 33 0 38 3 49 35 6
19 8 38 5 41 -11 10 -65 18 -82 12z"/>
<path d="M3261 699 c-133 -29 -176 -226 -73 -330 76 -76 224 -58 273 33 13 25
9 29 -40 38 -34 6 -43 4 -60 -16 -20 -24 -53 -30 -86 -18 -19 8 -48 61 -40 74
4 6 59 10 126 10 l120 0 -7 48 c-17 121 -102 186 -213 161z m87 -86 c11 -10
23 -28 27 -40 6 -22 4 -23 -64 -23 -64 0 -71 2 -71 20 0 27 35 60 64 60 13 0
33 -8 44 -17z"/>
<path d="M1430 516 l0 -186 50 0 50 0 -2 183 -3 182 -47 3 -48 3 0 -185z"/>
</g>
</svg>
