<?xml version="1.0" encoding="UTF-8"?>
<!DOCTYPE svg PUBLIC "-//W3C//DTD SVG 1.1//EN" "http://www.w3.org/Graphics/SVG/1.1/DTD/svg11.dtd">
<svg xmlns="http://www.w3.org/2000/svg" version="1.1" width="111px" height="102px" style="shape-rendering:geometricPrecision; text-rendering:geometricPrecision; image-rendering:optimizeQuality; fill-rule:evenodd; clip-rule:evenodd" xmlns:xlink="http://www.w3.org/1999/xlink">
<g><path style="opacity:0.698" fill="#f9e8e3" d="M 26.5,10.5 C 33.9847,9.06844 41.318,9.7351 48.5,12.5C 44.5191,11.9791 40.5191,11.6458 36.5,11.5C 33.3752,10.5206 30.0419,10.1872 26.5,10.5 Z"/></g>
<g><path style="opacity:0.882" fill="#efafab" d="M 26.5,10.5 C 30.0419,10.1872 33.3752,10.5206 36.5,11.5C 35.8333,11.5 35.1667,11.5 34.5,11.5C 29.9677,11.1818 25.6344,11.5151 21.5,12.5C 17.3017,13.2672 13.3017,14.6005 9.5,16.5C 8.83333,16.5 8.16667,16.5 7.5,16.5C 13.25,12.9179 19.5833,10.9179 26.5,10.5 Z"/></g>
<g><path style="opacity:1" fill="#f1674b" d="M 21.5,12.5 C 25.6344,11.5151 29.9677,11.1818 34.5,11.5C 34.1601,14.1441 34.8267,16.4775 36.5,18.5C 36.1373,19.1835 35.8039,19.8501 35.5,20.5C 33.0504,20.298 30.717,20.6314 28.5,21.5C 26.9143,18.7431 25.9143,15.7431 25.5,12.5C 24.1667,12.5 22.8333,12.5 21.5,12.5 Z"/></g>
<g><path style="opacity:1" fill="#e52625" d="M 21.5,12.5 C 22.8333,12.5 24.1667,12.5 25.5,12.5C 25.9143,15.7431 26.9143,18.7431 28.5,21.5C 27.5084,21.3284 26.8417,21.6618 26.5,22.5C 24.847,22.6596 23.5137,23.3263 22.5,24.5C 20.5887,25.075 18.922,26.075 17.5,27.5C 15.0612,25.4659 12.7279,23.2993 10.5,21C 10.9574,20.586 11.2907,20.086 11.5,19.5C 10.3881,18.7348 9.72142,17.7348 9.5,16.5C 13.3017,14.6005 17.3017,13.2672 21.5,12.5 Z"/></g>
<g><path style="opacity:1" fill="#ef896c" d="M 34.5,11.5 C 35.1667,11.5 35.8333,11.5 36.5,11.5C 40.5191,11.6458 44.5191,11.9791 48.5,12.5C 48.8333,13.1667 49.1667,13.8333 49.5,14.5C 48.6236,14.3691 47.9569,14.7025 47.5,15.5C 48.7472,17.323 49.4139,19.323 49.5,21.5C 50.791,21.2627 51.791,21.596 52.5,22.5C 52.1667,22.5 51.8333,22.5 51.5,22.5C 49.1944,22.0074 46.861,21.6741 44.5,21.5C 41.7131,20.5233 38.7131,20.19 35.5,20.5C 35.8039,19.8501 36.1373,19.1835 36.5,18.5C 34.8267,16.4775 34.1601,14.1441 34.5,11.5 Z"/></g>
<g><path style="opacity:1" fill="#c11a1e" d="M 7.5,16.5 C 8.16667,16.5 8.83333,16.5 9.5,16.5C 9.72142,17.7348 10.3881,18.7348 11.5,19.5C 11.2907,20.086 10.9574,20.586 10.5,21C 12.7279,23.2993 15.0612,25.4659 17.5,27.5C 17.1667,28.1667 16.8333,28.8333 16.5,29.5C 15.2058,30.2899 14.0391,31.2899 13,32.5C 9.81976,28.6554 6.6531,24.8221 3.5,21C 5.01816,19.6494 6.35149,18.1494 7.5,16.5 Z"/></g>
<g><path style="opacity:0.58" fill="#f1cfcb" d="M 48.5,12.5 C 53.7009,14.0979 58.7009,16.2646 63.5,19C 69.9001,23.5219 76.2335,28.0219 82.5,32.5C 82.6716,33.4916 82.3382,34.1583 81.5,34.5C 81.1667,34.5 80.8333,34.5 80.5,34.5C 79.5,33.8333 78.5,33.1667 77.5,32.5C 78.3324,31.6715 77.999,30.8382 76.5,30C 71.9523,26.6121 67.2856,23.4454 62.5,20.5C 58.5953,17.7164 54.262,15.7164 49.5,14.5C 49.1667,13.8333 48.8333,13.1667 48.5,12.5 Z"/></g>
<g><path style="opacity:1" fill="#f1bfb3" d="M 35.5,20.5 C 38.7131,20.19 41.7131,20.5233 44.5,21.5C 43.8333,21.5 43.1667,21.5 42.5,21.5C 37.1301,21.3921 31.7968,21.7255 26.5,22.5C 26.8417,21.6618 27.5084,21.3284 28.5,21.5C 30.717,20.6314 33.0504,20.298 35.5,20.5 Z"/></g>
<g><path style="opacity:1" fill="#ca4f3a" d="M 49.5,14.5 C 54.262,15.7164 58.5953,17.7164 62.5,20.5C 60.8042,20.6854 59.4709,21.5187 58.5,23C 59.9423,23.3768 60.9423,24.2101 61.5,25.5C 58.4262,24.6976 55.4262,23.6976 52.5,22.5C 51.791,21.596 50.791,21.2627 49.5,21.5C 49.4139,19.323 48.7472,17.323 47.5,15.5C 47.9569,14.7025 48.6236,14.3691 49.5,14.5 Z"/></g>
<g><path style="opacity:1" fill="#b62c22" d="M 62.5,20.5 C 67.2856,23.4454 71.9523,26.6121 76.5,30C 77.999,30.8382 78.3324,31.6715 77.5,32.5C 75.079,32.1218 72.7457,31.4552 70.5,30.5C 67.6963,28.5954 64.6963,26.9287 61.5,25.5C 60.9423,24.2101 59.9423,23.3768 58.5,23C 59.4709,21.5187 60.8042,20.6854 62.5,20.5 Z"/></g>
<g><path style="opacity:1" fill="#f3f3f3" d="M 42.5,21.5 C 42.5858,22.4959 42.2524,23.3292 41.5,24C 43.2658,26.096 44.5991,28.4293 45.5,31C 40.0896,32.3006 35.0896,34.4672 30.5,37.5C 29.8333,37.5 29.1667,37.5 28.5,37.5C 26.2721,36.6782 25.6054,35.3448 26.5,33.5C 25.6081,30.197 24.2748,27.197 22.5,24.5C 23.5137,23.3263 24.847,22.6596 26.5,22.5C 31.7968,21.7255 37.1301,21.3921 42.5,21.5 Z"/></g>
<g><path style="opacity:1" fill="#d6d7da" d="M 42.5,21.5 C 43.1667,21.5 43.8333,21.5 44.5,21.5C 46.861,21.6741 49.1944,22.0074 51.5,22.5C 51.0825,23.2216 50.4158,23.7216 49.5,24C 51.8696,26.2932 53.2029,29.1265 53.5,32.5C 57.3992,33.9841 61.3992,34.4841 65.5,34C 63.6972,32.738 62.3639,31.0713 61.5,29C 62,28.5 62.5,28 63,27.5C 64,28.5 65,29.5 66,30.5C 67.2988,30.0338 68.7988,30.0338 70.5,30.5C 72.7457,31.4552 75.079,32.1218 77.5,32.5C 78.5,33.1667 79.5,33.8333 80.5,34.5C 79.7611,34.369 79.0944,34.5357 78.5,35C 80.2573,36.7495 82.2573,37.9162 84.5,38.5C 83.209,38.2627 82.209,38.596 81.5,39.5C 80.8333,39.5 80.5,39.8333 80.5,40.5C 80.1667,40.5 79.8333,40.5 79.5,40.5C 74.7243,38.7211 69.7243,37.3877 64.5,36.5C 63.8333,36.5 63.1667,36.5 62.5,36.5C 53.3669,33.5106 44.3669,33.8439 35.5,37.5C 33.8333,37.5 32.1667,37.5 30.5,37.5C 35.0896,34.4672 40.0896,32.3006 45.5,31C 44.5991,28.4293 43.2658,26.096 41.5,24C 42.2524,23.3292 42.5858,22.4959 42.5,21.5 Z"/></g>
<g><path style="opacity:1" fill="#c6c4c6" d="M 51.5,22.5 C 51.8333,22.5 52.1667,22.5 52.5,22.5C 55.4262,23.6976 58.4262,24.6976 61.5,25.5C 64.6963,26.9287 67.6963,28.5954 70.5,30.5C 68.7988,30.0338 67.2988,30.0338 66,30.5C 65,29.5 64,28.5 63,27.5C 62.5,28 62,28.5 61.5,29C 62.3639,31.0713 63.6972,32.738 65.5,34C 61.3992,34.4841 57.3992,33.9841 53.5,32.5C 53.2029,29.1265 51.8696,26.2932 49.5,24C 50.4158,23.7216 51.0825,23.2216 51.5,22.5 Z"/></g>
<g><path style="opacity:1" fill="#d3c8ca" d="M 7.5,16.5 C 6.35149,18.1494 5.01816,19.6494 3.5,21C 6.6531,24.8221 9.81976,28.6554 13,32.5C 14.0391,31.2899 15.2058,30.2899 16.5,29.5C 18.277,33.2663 19.4437,37.2663 20,41.5C 20.3826,42.056 20.8826,42.3893 21.5,42.5C 20.7101,43.7942 19.7101,44.9609 18.5,46C 17.2559,46.4561 16.4226,45.9561 16,44.5C 14.9609,45.7101 13.7942,46.7101 12.5,47.5C 13.0476,45.6064 14.0476,43.9397 15.5,42.5C 12.4296,34.4307 7.76294,27.4307 1.5,21.5C 2.65895,18.9081 4.65895,17.2414 7.5,16.5 Z"/></g>
<g><path style="opacity:1" fill="#d4d4d6" d="M 22.5,24.5 C 24.2748,27.197 25.6081,30.197 26.5,33.5C 25.6054,35.3448 26.2721,36.6782 28.5,37.5C 26.4687,39.5224 24.1354,41.1891 21.5,42.5C 20.8826,42.3893 20.3826,42.056 20,41.5C 19.4437,37.2663 18.277,33.2663 16.5,29.5C 16.8333,28.8333 17.1667,28.1667 17.5,27.5C 18.922,26.075 20.5887,25.075 22.5,24.5 Z"/></g>
<g><path style="opacity:0.973" fill="#e6e7e9" d="M 110.5,30.5 C 110.5,31.8333 110.5,33.1667 110.5,34.5C 106.005,37.6671 101.005,39.6671 95.5,40.5C 94.8166,38.8235 93.4832,38.1568 91.5,38.5C 91.38,37.4138 90.7133,36.7472 89.5,36.5C 86.6507,36.0356 83.984,35.3689 81.5,34.5C 82.3382,34.1583 82.6716,33.4916 82.5,32.5C 92.1108,35.5555 101.444,34.8889 110.5,30.5 Z"/></g>
<g><path style="opacity:0.085" fill="#fcf8f8" d="M 64.5,37.5 C 65.1667,43.1667 65.8333,48.8333 66.5,54.5C 66.1805,59.3633 66.5139,64.03 67.5,68.5C 68.1667,68.1667 68.8333,67.8333 69.5,67.5C 68.7939,69.8764 67.1273,71.2097 64.5,71.5C 64.5,60.1667 64.5,48.8333 64.5,37.5 Z"/></g>
<g><path style="opacity:1" fill="#820706" d="M 28.5,37.5 C 29.1667,37.5 29.8333,37.5 30.5,37.5C 32.1667,37.5 33.8333,37.5 35.5,37.5C 37.649,38.7362 39.9823,39.7362 42.5,40.5C 43.8333,42.5 45.5,44.1667 47.5,45.5C 47.427,47.0269 48.0937,48.0269 49.5,48.5C 49.5,49.1667 49.5,49.8333 49.5,50.5C 44.9537,47.3344 42.6203,48.6678 42.5,54.5C 39.9275,46.7113 34.5942,43.878 26.5,46C 23.921,47.0757 22.2543,48.909 21.5,51.5C 20.3127,53.0725 19.3127,54.7392 18.5,56.5C 18.6882,54.8967 18.1882,53.5634 17,52.5C 15.1717,52.6897 13.3384,53.0231 11.5,53.5C 12.1495,51.5648 12.4828,49.5648 12.5,47.5C 13.7942,46.7101 14.9609,45.7101 16,44.5C 16.4226,45.9561 17.2559,46.4561 18.5,46C 19.7101,44.9609 20.7101,43.7942 21.5,42.5C 24.1354,41.1891 26.4687,39.5224 28.5,37.5 Z"/></g>
<g><path style="opacity:0.506" fill="#deb8b7" d="M 35.5,37.5 C 38.491,37.1663 40.8243,38.1663 42.5,40.5C 39.9823,39.7362 37.649,38.7362 35.5,37.5 Z"/></g>
<g><path style="opacity:0.4" fill="#c4a5a4" d="M 81.5,39.5 C 82.209,38.596 83.209,38.2627 84.5,38.5C 86.8333,38.5 89.1667,38.5 91.5,38.5C 93.4832,38.1568 94.8166,38.8235 95.5,40.5C 94.1667,42.5 92.5,44.1667 90.5,45.5C 91.2026,43.2843 92.5359,41.451 94.5,40C 90.1794,39.501 85.8461,39.3343 81.5,39.5 Z"/></g>
<g><path style="opacity:0.067" fill="#e3c3c3" d="M 42.5,40.5 C 45.1667,41.1667 46.8333,42.8333 47.5,45.5C 45.5,44.1667 43.8333,42.5 42.5,40.5 Z"/></g>
<g><path style="opacity:1" fill="#88130c" d="M 81.5,39.5 C 85.8461,39.3343 90.1794,39.501 94.5,40C 92.5359,41.451 91.2026,43.2843 90.5,45.5C 89.5,47.1667 88.1667,48.5 86.5,49.5C 84.9705,48.9332 83.4705,48.2666 82,47.5C 81.6886,48.7425 82.1886,49.7425 83.5,50.5C 82.675,51.3857 81.675,51.719 80.5,51.5C 80.5,52.8333 80.5,54.1667 80.5,55.5C 78.2362,53.315 76.7362,50.9817 76,48.5C 74.6974,48.9783 73.5307,49.645 72.5,50.5C 72.5,49.8333 72.5,49.1667 72.5,48.5C 75.5,46.1667 78.1667,43.5 80.5,40.5C 80.5,39.8333 80.8333,39.5 81.5,39.5 Z"/></g>
<g><path style="opacity:0.584" fill="#d09d9b" d="M 42.5,54.5 C 42.5,55.8333 42.5,57.1667 42.5,58.5C 42.6641,61.1873 42.4974,63.854 42,66.5C 41.7216,67.4158 41.2216,68.0825 40.5,68.5C 42.5452,60.9718 41.2119,54.1385 36.5,48C 30.558,45.3214 25.558,46.4881 21.5,51.5C 22.2543,48.909 23.921,47.0757 26.5,46C 34.5942,43.878 39.9275,46.7113 42.5,54.5 Z"/></g>
<g><path style="opacity:0.851" fill="#d0a09e" d="M 79.5,40.5 C 79.8333,40.5 80.1667,40.5 80.5,40.5C 78.1667,43.5 75.5,46.1667 72.5,48.5C 74.0941,45.2358 76.4275,42.5691 79.5,40.5 Z"/></g>
<g><path style="opacity:0.573" fill="#ddb0ae" d="M 47.5,45.5 C 48.9063,45.9731 49.573,46.9731 49.5,48.5C 48.0937,48.0269 47.427,47.0269 47.5,45.5 Z"/></g>
<g><path style="opacity:1" fill="#960f08" d="M 80.5,55.5 C 80.8333,55.5 81.1667,55.5 81.5,55.5C 80.8774,58.3708 80.5441,61.2041 80.5,64C 81.1667,64.3333 81.8333,64.6667 82.5,65C 81.3852,67.1313 80.0519,68.9646 78.5,70.5C 78.1667,70.5 77.8333,70.5 77.5,70.5C 77.573,68.9731 76.9063,67.9731 75.5,67.5C 74.6851,66.5707 73.8518,65.5707 73,64.5C 71.9609,65.7101 70.7942,66.7101 69.5,67.5C 68.8333,67.8333 68.1667,68.1667 67.5,68.5C 67.3342,63.8215 67.5008,59.1548 68,54.5C 69.3712,52.9586 70.8712,51.6253 72.5,50.5C 73.5307,49.645 74.6974,48.9783 76,48.5C 76.7362,50.9817 78.2362,53.315 80.5,55.5 Z"/></g>
<g><path style="opacity:1" fill="#a54a40" d="M 86.5,49.5 C 84.7484,51.2459 83.4151,53.2459 82.5,55.5C 82.1667,55.5 81.8333,55.5 81.5,55.5C 81.1667,55.5 80.8333,55.5 80.5,55.5C 80.5,54.1667 80.5,52.8333 80.5,51.5C 81.675,51.719 82.675,51.3857 83.5,50.5C 82.1886,49.7425 81.6886,48.7425 82,47.5C 83.4705,48.2666 84.9705,48.9332 86.5,49.5 Z"/></g>
<g><path style="opacity:1" fill="#840e0a" d="M 18.5,56.5 C 18.1936,59.3854 18.5269,62.0521 19.5,64.5C 19.1201,66.698 19.7868,68.3646 21.5,69.5C 22.4884,70.795 23.4884,72.1283 24.5,73.5C 24.6107,74.1174 24.944,74.6174 25.5,75C 29.554,75.6936 33.554,75.5269 37.5,74.5C 36.9423,75.7899 35.9423,76.6232 34.5,77C 35.5,77.3333 36.5,77.6667 37.5,78C 36.6634,79.0113 36.33,80.1779 36.5,81.5C 39.1873,81.3359 41.854,81.5026 44.5,82C 45.056,82.3826 45.3893,82.8826 45.5,83.5C 43.0213,82.3773 40.688,82.3773 38.5,83.5C 38.1667,83.5 37.8333,83.5 37.5,83.5C 32.1301,83.6079 26.7968,83.2745 21.5,82.5C 20.5084,82.6716 19.8417,82.3382 19.5,81.5C 17.8333,79.1667 15.8333,77.1667 13.5,75.5C 12.8333,73.5 12.1667,71.5 11.5,69.5C 10.2984,64.0227 10.2984,58.6894 11.5,53.5C 13.3384,53.0231 15.1717,52.6897 17,52.5C 18.1882,53.5634 18.6882,54.8967 18.5,56.5 Z"/></g>
<g><path style="opacity:0.776" fill="#e09e9b" d="M 49.5,48.5 C 51.0739,50.1016 51.7406,52.1016 51.5,54.5C 50.3263,53.4863 49.6596,52.153 49.5,50.5C 49.5,49.8333 49.5,49.1667 49.5,48.5 Z"/></g>
<g><path style="opacity:1" fill="#b30403" d="M 49.5,50.5 C 49.6596,52.153 50.3263,53.4863 51.5,54.5C 51.6655,58.5138 51.4988,62.5138 51,66.5C 50.7679,67.7375 50.2679,68.7375 49.5,69.5C 47.8099,71.521 45.9765,71.1877 44,68.5C 43.8213,64.9748 43.3213,61.6414 42.5,58.5C 42.5,57.1667 42.5,55.8333 42.5,54.5C 42.6203,48.6678 44.9537,47.3344 49.5,50.5 Z"/></g>
<g><path style="opacity:0.58" fill="#d9b7b6" d="M 82.5,55.5 C 83.9063,55.9731 84.573,56.9731 84.5,58.5C 83.0937,58.0269 82.427,57.0269 82.5,55.5 Z"/></g>
<g><path style="opacity:0.98" fill="#ae6766" d="M 21.5,51.5 C 21.1667,53.5 20.8333,55.5 20.5,57.5C 19.5318,59.6074 19.1984,61.9407 19.5,64.5C 18.5269,62.0521 18.1936,59.3854 18.5,56.5C 19.3127,54.7392 20.3127,53.0725 21.5,51.5 Z"/></g>
<g><path style="opacity:0.624" fill="#d8b3b4" d="M 84.5,58.5 C 85.9063,58.9731 86.573,59.9731 86.5,61.5C 85.0937,61.0269 84.427,60.0269 84.5,58.5 Z"/></g>
<g><path style="opacity:0.935" fill="#bf8583" d="M 12.5,47.5 C 12.4828,49.5648 12.1495,51.5648 11.5,53.5C 10.2984,58.6894 10.2984,64.0227 11.5,69.5C 11.1667,69.5 10.8333,69.5 10.5,69.5C 7.67935,61.896 8.34602,54.5626 12.5,47.5 Z"/></g>
<g><path style="opacity:0.561" fill="#e7bdbc" d="M 51.5,54.5 C 53.1548,61.1191 52.4882,67.6191 49.5,74C 50.1667,74.6667 50.8333,74.6667 51.5,74C 52.0659,73.0053 52.7326,72.172 53.5,71.5C 53.5,71.8333 53.5,72.1667 53.5,72.5C 52.9517,75.0838 51.285,76.0838 48.5,75.5C 48.8333,73.5 49.1667,71.5 49.5,69.5C 50.2679,68.7375 50.7679,67.7375 51,66.5C 51.4988,62.5138 51.6655,58.5138 51.5,54.5 Z"/></g>
<g><path style="opacity:0.6" fill="#cd8c8a" d="M 62.5,36.5 C 63.1667,36.5 63.8333,36.5 64.5,36.5C 64.5,36.8333 64.5,37.1667 64.5,37.5C 64.5,48.8333 64.5,60.1667 64.5,71.5C 64.7678,73.099 64.4345,74.4324 63.5,75.5C 63.5,74.8333 63.5,74.1667 63.5,73.5C 63.5,64.5 63.5,55.5 63.5,46.5C 63.5,43.5 63.5,40.5 63.5,37.5C 60.5,37.5 57.5,37.5 54.5,37.5C 54.5,41.8333 54.5,46.1667 54.5,50.5C 54.5,57.8333 54.5,65.1667 54.5,72.5C 54.1667,72.5 53.8333,72.5 53.5,72.5C 53.5,72.1667 53.5,71.8333 53.5,71.5C 53.5,59.8333 53.5,48.1667 53.5,36.5C 56.5,36.5 59.5,36.5 62.5,36.5 Z"/></g>
<g><path style="opacity:1" fill="#960506" d="M 63.5,46.5 C 61.1799,44.7739 58.5133,44.1072 55.5,44.5C 55.5,46.5 55.5,48.5 55.5,50.5C 55.1667,50.5 54.8333,50.5 54.5,50.5C 54.5,46.1667 54.5,41.8333 54.5,37.5C 57.5,37.5 60.5,37.5 63.5,37.5C 63.5,40.5 63.5,43.5 63.5,46.5 Z"/></g>
<g><path style="opacity:0.659" fill="#d4b1b0" d="M 86.5,61.5 C 87.9063,61.9731 88.573,62.9731 88.5,64.5C 87.0937,64.0269 86.427,63.0269 86.5,61.5 Z"/></g>
<g><path style="opacity:1" fill="#c25c59" d="M 72.5,48.5 C 72.5,49.1667 72.5,49.8333 72.5,50.5C 70.8712,51.6253 69.3712,52.9586 68,54.5C 67.5008,59.1548 67.3342,63.8215 67.5,68.5C 66.5139,64.03 66.1805,59.3633 66.5,54.5C 68.1667,52.1667 70.1667,50.1667 72.5,48.5 Z"/></g>
<g><path style="opacity:1" fill="#ab0303" d="M 63.5,46.5 C 63.5,55.5 63.5,64.5 63.5,73.5C 61.7408,74.8714 59.7408,75.8714 57.5,76.5C 55.4501,75.9234 54.4501,74.5901 54.5,72.5C 54.5,65.1667 54.5,57.8333 54.5,50.5C 54.8333,50.5 55.1667,50.5 55.5,50.5C 55.5,48.5 55.5,46.5 55.5,44.5C 58.5133,44.1072 61.1799,44.7739 63.5,46.5 Z"/></g>
<g><path style="opacity:1" fill="#c30000" d="M 55.5,50.5 C 61.4127,49.6547 63.7461,52.4881 62.5,59C 63.721,65.1269 61.3876,67.9602 55.5,67.5C 55.5,61.8333 55.5,56.1667 55.5,50.5 Z"/></g>
<g><path style="opacity:1" fill="#850d09" d="M 81.5,55.5 C 81.8333,55.5 82.1667,55.5 82.5,55.5C 82.427,57.0269 83.0937,58.0269 84.5,58.5C 84.427,60.0269 85.0937,61.0269 86.5,61.5C 86.427,63.0269 87.0937,64.0269 88.5,64.5C 88.427,66.0269 89.0937,67.0269 90.5,67.5C 90.427,69.0269 91.0937,70.0269 92.5,70.5C 92.427,72.0269 93.0937,73.0269 94.5,73.5C 94.427,75.0269 95.0937,76.0269 96.5,76.5C 96.427,78.0269 97.0937,79.0269 98.5,79.5C 98.5106,81.0174 99.1772,82.1841 100.5,83C 94.8855,84.0544 89.5522,83.5544 84.5,81.5C 83.6618,81.1583 83.3284,80.4916 83.5,79.5C 83.4456,77.368 82.4456,76.0347 80.5,75.5C 79.6618,75.1583 79.3284,74.4916 79.5,73.5C 79.4431,72.391 79.1098,71.391 78.5,70.5C 80.0519,68.9646 81.3852,67.1313 82.5,65C 81.8333,64.6667 81.1667,64.3333 80.5,64C 80.5441,61.2041 80.8774,58.3708 81.5,55.5 Z"/></g>
<g><path style="opacity:0.659" fill="#d4adac" d="M 88.5,64.5 C 89.9063,64.9731 90.573,65.9731 90.5,67.5C 89.0937,67.0269 88.427,66.0269 88.5,64.5 Z"/></g>
<g><path style="opacity:1" fill="#d7aeae" d="M 20.5,57.5 C 20.307,61.5662 20.6403,65.5662 21.5,69.5C 19.7868,68.3646 19.1201,66.698 19.5,64.5C 19.1984,61.9407 19.5318,59.6074 20.5,57.5 Z"/></g>
<g><path style="opacity:0.016" fill="#eed6d7" d="M 75.5,67.5 C 76.9063,67.9731 77.573,68.9731 77.5,70.5C 76.0937,70.0269 75.427,69.0269 75.5,67.5 Z"/></g>
<g><path style="opacity:0.686" fill="#d1a7a7" d="M 90.5,67.5 C 91.9063,67.9731 92.573,68.9731 92.5,70.5C 91.0937,70.0269 90.427,69.0269 90.5,67.5 Z"/></g>
<g><path style="opacity:0.443" fill="#dab6b7" d="M 10.5,69.5 C 10.8333,69.5 11.1667,69.5 11.5,69.5C 12.1667,71.5 12.8333,73.5 13.5,75.5C 11.461,74.089 10.461,72.089 10.5,69.5 Z"/></g>
<g><path style="opacity:0.294" fill="#ebccce" d="M 77.5,70.5 C 77.8333,70.5 78.1667,70.5 78.5,70.5C 79.1098,71.391 79.4431,72.391 79.5,73.5C 78.0937,73.0269 77.427,72.0269 77.5,70.5 Z"/></g>
<g><path style="opacity:0.729" fill="#d0a5a6" d="M 92.5,70.5 C 93.9063,70.9731 94.573,71.9731 94.5,73.5C 93.0937,73.0269 92.427,72.0269 92.5,70.5 Z"/></g>
<g><path style="opacity:0.141" fill="#e8cdcc" d="M 39.5,70.5 C 39.2671,72.0618 38.6005,73.3951 37.5,74.5C 33.554,75.5269 29.554,75.6936 25.5,75C 24.944,74.6174 24.6107,74.1174 24.5,73.5C 30.1817,75.5032 35.1817,74.5032 39.5,70.5 Z"/></g>
<g><path style="opacity:1" fill="#8e130c" d="M 42.5,58.5 C 43.3213,61.6414 43.8213,64.9748 44,68.5C 45.9765,71.1877 47.8099,71.521 49.5,69.5C 49.1667,71.5 48.8333,73.5 48.5,75.5C 51.285,76.0838 52.9517,75.0838 53.5,72.5C 53.8333,72.5 54.1667,72.5 54.5,72.5C 54.4501,74.5901 55.4501,75.9234 57.5,76.5C 59.7408,75.8714 61.7408,74.8714 63.5,73.5C 63.5,74.1667 63.5,74.8333 63.5,75.5C 63.5,75.8333 63.5,76.1667 63.5,76.5C 62.0937,76.9731 61.427,77.9731 61.5,79.5C 60.4154,81.5869 58.7488,82.9202 56.5,83.5C 52.8333,83.5 49.1667,83.5 45.5,83.5C 45.3893,82.8826 45.056,82.3826 44.5,82C 41.854,81.5026 39.1873,81.3359 36.5,81.5C 36.33,80.1779 36.6634,79.0113 37.5,78C 36.5,77.6667 35.5,77.3333 34.5,77C 35.9423,76.6232 36.9423,75.7899 37.5,74.5C 38.6005,73.3951 39.2671,72.0618 39.5,70.5C 39.3284,69.5084 39.6618,68.8417 40.5,68.5C 41.2216,68.0825 41.7216,67.4158 42,66.5C 42.4974,63.854 42.6641,61.1873 42.5,58.5 Z"/></g>
<g><path style="opacity:1" fill="#cd9494" d="M 80.5,75.5 C 82.4456,76.0347 83.4456,77.368 83.5,79.5C 82.0256,78.5637 81.0256,77.2303 80.5,75.5 Z"/></g>
<g><path style="opacity:0.733" fill="#cea1a1" d="M 94.5,73.5 C 95.9063,73.9731 96.573,74.9731 96.5,76.5C 95.0937,76.0269 94.427,75.0269 94.5,73.5 Z"/></g>
<g><path style="opacity:0.059" fill="#e0c2c2" d="M 13.5,75.5 C 15.8333,77.1667 17.8333,79.1667 19.5,81.5C 16.5,80.5 14.5,78.5 13.5,75.5 Z"/></g>
<g><path style="opacity:0.318" fill="#e4c5c5" d="M 63.5,76.5 C 63.573,78.0269 62.9063,79.0269 61.5,79.5C 61.427,77.9731 62.0937,76.9731 63.5,76.5 Z"/></g>
<g><path style="opacity:0.765" fill="#ca9c9b" d="M 96.5,76.5 C 97.9063,76.9731 98.573,77.9731 98.5,79.5C 97.0937,79.0269 96.427,78.0269 96.5,76.5 Z"/></g>
<g><path style="opacity:0.792" fill="#c08f8d" d="M 21.5,82.5 C 26.7968,83.2745 32.1301,83.6079 37.5,83.5C 33.0189,84.6484 28.3522,84.8151 23.5,84C 22.5842,83.7216 21.9175,83.2216 21.5,82.5 Z"/></g>
<g><path style="opacity:0.911" fill="#cb9d9c" d="M 38.5,83.5 C 40.688,82.3773 43.0213,82.3773 45.5,83.5C 49.1667,83.5 52.8333,83.5 56.5,83.5C 54.3621,84.4045 52.0288,85.0711 49.5,85.5C 45.8697,84.5737 42.203,83.9071 38.5,83.5 Z"/></g>
<g><path style="opacity:0.659" fill="#c69798" d="M 98.5,79.5 C 100.727,80.4006 101.727,82.0672 101.5,84.5C 96.1563,84.666 90.8229,84.4994 85.5,84C 84.7476,83.3292 84.4142,82.4959 84.5,81.5C 89.5522,83.5544 94.8855,84.0544 100.5,83C 99.1772,82.1841 98.5106,81.0174 98.5,79.5 Z"/></g>
</svg>
