<?xml version="1.0" encoding="UTF-8"?>
<!DOCTYPE svg PUBLIC "-//W3C//DTD SVG 1.1//EN" "http://www.w3.org/Graphics/SVG/1.1/DTD/svg11.dtd">
<svg xmlns="http://www.w3.org/2000/svg" version="1.1" width="166px" height="108px" style="shape-rendering:geometricPrecision; text-rendering:geometricPrecision; image-rendering:optimizeQuality; fill-rule:evenodd; clip-rule:evenodd" xmlns:xlink="http://www.w3.org/1999/xlink">
<g><path style="opacity:1" fill="#f6921a" d="M 74.5,-0.5 C 78.8333,-0.5 83.1667,-0.5 87.5,-0.5C 93.2577,3.86005 94.9243,9.52672 92.5,16.5C 91.8826,16.3893 91.3826,16.056 91,15.5C 89.8333,18 88,19.8333 85.5,21C 73.9461,22.7796 69.1128,17.9462 71,6.5C 72.4213,4.5952 73.588,2.5952 74.5,0.5C 74.5,0.166667 74.5,-0.166667 74.5,-0.5 Z"/></g>
<g><path style="opacity:0.725" fill="#fab866" d="M 66.5,14.5 C 66.5654,14.9382 66.3988,15.2716 66,15.5C 64.3333,14.1667 62.6667,12.8333 61,11.5C 60.8333,12.3333 60.6667,13.1667 60.5,14C 62.1103,18.7166 64.1103,23.2166 66.5,27.5C 66.1667,27.5 65.8333,27.5 65.5,27.5C 60.8887,21.2714 58.2221,14.2714 57.5,6.5C 58.9778,6.23798 60.3112,6.57131 61.5,7.5C 62.8037,10.1301 64.4704,12.4634 66.5,14.5 Z"/></g>
<g><path style="opacity:0.549" fill="#20579a" d="M 65.5,27.5 C 46.157,29.0814 26.4903,30.2481 6.5,31C 3.88856,34.0896 1.55523,37.2563 -0.5,40.5C -0.5,39.1667 -0.5,37.8333 -0.5,36.5C 1.75084,32.5205 5.08417,29.6871 9.5,28C 28.1637,27.5001 46.8304,27.3334 65.5,27.5 Z"/></g>
<g><path style="opacity:1" fill="#0f4395" d="M 65.5,27.5 C 65.8333,27.5 66.1667,27.5 66.5,27.5C 68.1667,28.8333 69.8333,30.1667 71.5,31.5C 73.8333,32.1667 76.1667,32.8333 78.5,33.5C 72.0216,41.7686 66.5216,50.7686 62,60.5C 59.4959,69.3161 62.6625,73.1495 71.5,72C 79.9202,59.1758 84.4202,45.0092 85,29.5C 85.4882,39.0635 87.1549,48.3968 90,57.5C 91.2223,62.0837 94.0556,64.2504 98.5,64C 99.056,63.6174 99.3893,63.1174 99.5,62.5C 101.075,56.9309 100.409,51.5976 97.5,46.5C 95.5373,40.5736 92.5373,35.2403 88.5,30.5C 90.955,29.6452 93.2883,28.6452 95.5,27.5C 104.809,28.8318 114.476,29.4985 124.5,29.5C 134.524,29.4985 144.191,28.8318 153.5,27.5C 158.545,28.6831 162.545,31.3498 165.5,35.5C 165.5,57.1667 165.5,78.8333 165.5,100.5C 163.5,103.167 161.167,105.5 158.5,107.5C 108.167,107.5 57.8333,107.5 7.5,107.5C 4.21573,105.883 1.54906,103.55 -0.5,100.5C -0.5,80.5 -0.5,60.5 -0.5,40.5C 1.55523,37.2563 3.88856,34.0896 6.5,31C 26.4903,30.2481 46.157,29.0814 65.5,27.5 Z"/></g>
<g><path style="opacity:0.549" fill="#135297" d="M 95.5,27.5 C 114.833,27.5 134.167,27.5 153.5,27.5C 144.191,28.8318 134.524,29.4985 124.5,29.5C 114.476,29.4985 104.809,28.8318 95.5,27.5 Z"/></g>
<g><path style="opacity:1" fill="#816957" d="M 71.5,31.5 C 74.2469,31.1866 76.9135,31.52 79.5,32.5C 79.3764,33.1067 79.0431,33.44 78.5,33.5C 76.1667,32.8333 73.8333,32.1667 71.5,31.5 Z"/></g>
<g><path style="opacity:1" fill="#f1921f" d="M 74.5,0.5 C 73.588,2.5952 72.4213,4.5952 71,6.5C 69.1128,17.9462 73.9461,22.7796 85.5,21C 88,19.8333 89.8333,18 91,15.5C 91.3826,16.056 91.8826,16.3893 92.5,16.5C 92.56,17.0431 92.8933,17.3764 93.5,17.5C 101.696,10.9918 111.029,8.32515 121.5,9.5C 121.5,10.8333 121.5,12.1667 121.5,13.5C 111.085,15.0389 102.419,19.7056 95.5,27.5C 93.2883,28.6452 90.955,29.6452 88.5,30.5C 92.5373,35.2403 95.5373,40.5736 97.5,46.5C 98.9685,51.7139 99.6351,57.0472 99.5,62.5C 99.3893,63.1174 99.056,63.6174 98.5,64C 94.0556,64.2504 91.2223,62.0837 90,57.5C 87.1549,48.3968 85.4882,39.0635 85,29.5C 84.4202,45.0092 79.9202,59.1758 71.5,72C 62.6625,73.1495 59.4959,69.3161 62,60.5C 66.5216,50.7686 72.0216,41.7686 78.5,33.5C 79.0431,33.44 79.3764,33.1067 79.5,32.5C 76.9135,31.52 74.2469,31.1866 71.5,31.5C 69.8333,30.1667 68.1667,28.8333 66.5,27.5C 64.1103,23.2166 62.1103,18.7166 60.5,14C 60.6667,13.1667 60.8333,12.3333 61,11.5C 62.6667,12.8333 64.3333,14.1667 66,15.5C 66.3988,15.2716 66.5654,14.9382 66.5,14.5C 67.3149,15.4293 68.1482,16.4293 69,17.5C 67.056,10.5505 68.8894,4.88381 74.5,0.5 Z M 86.5,23.5 C 86.3893,24.1174 86.056,24.6174 85.5,25C 83.1667,25.6667 80.8333,25.6667 78.5,25C 81.2066,24.6049 83.8733,24.1049 86.5,23.5 Z"/></g>
<g><path style="opacity:1" fill="#d6dfed" d="M 107.5,35.5 C 111.514,35.3345 115.514,35.5012 119.5,36C 125.368,39.0402 126.868,43.5402 124,49.5C 121.742,51.4296 119.242,52.9296 116.5,54C 120.883,57.3028 123.883,61.4695 125.5,66.5C 124.448,66.6495 123.448,66.4828 122.5,66C 118.623,62.2917 114.957,58.4584 111.5,54.5C 110.509,58.4454 110.176,62.4454 110.5,66.5C 109.167,66.5 107.833,66.5 106.5,66.5C 106.192,56.0846 106.525,45.7513 107.5,35.5 Z"/></g>
<g><path style="opacity:1" fill="#d5e0ed" d="M 129.5,35.5 C 130.822,35.33 131.989,35.6634 133,36.5C 133.5,46.4944 133.666,56.4944 133.5,66.5C 132.167,66.5 130.833,66.5 129.5,66.5C 129.5,56.1667 129.5,45.8333 129.5,35.5 Z"/></g>
<g><path style="opacity:1" fill="#476ead" d="M 119.5,40.5 C 116.833,40.5 114.167,40.5 111.5,40.5C 111.5,43.5 111.5,46.5 111.5,49.5C 110.521,46.3752 110.187,43.0419 110.5,39.5C 113.713,39.19 116.713,39.5233 119.5,40.5 Z"/></g>
<g><path style="opacity:1" fill="#0e4094" d="M 119.5,40.5 C 122.145,43.2171 122.145,46.0505 119.5,49C 116.854,49.4974 114.187,49.6641 111.5,49.5C 111.5,46.5 111.5,43.5 111.5,40.5C 114.167,40.5 116.833,40.5 119.5,40.5 Z"/></g>
<g><path style="opacity:1" fill="#9ab0d3" d="M 53.5,37.5 C 55.5892,45.7815 57.2558,54.2815 58.5,63C 58.4857,64.3847 58.1524,65.5514 57.5,66.5C 55.8403,56.8755 54.5069,47.2088 53.5,37.5 Z"/></g>
<g><path style="opacity:1" fill="#dee5f1" d="M 53.5,37.5 C 54.5069,47.2088 55.8403,56.8755 57.5,66.5C 56.5,66.5 55.5,66.5 54.5,66.5C 53.6555,58.4074 52.3222,50.4074 50.5,42.5C 47.5692,50.3516 45.2359,58.3516 43.5,66.5C 42.1667,66.5 40.8333,66.5 39.5,66.5C 39.5,65.5 39.5,64.5 39.5,63.5C 37.8709,57.6075 35.8709,51.9409 33.5,46.5C 33.0486,41.6944 32.3819,41.5278 31.5,46C 30.1188,52.7862 29.1188,59.6196 28.5,66.5C 27.1667,66.5 25.8333,66.5 24.5,66.5C 25.9114,56.4449 27.5781,46.4449 29.5,36.5C 31.4672,36.2606 33.3005,36.5939 35,37.5C 36.7325,44.0208 38.8992,50.3542 41.5,56.5C 43.7495,50.2528 45.9162,43.9195 48,37.5C 49.9688,34.8761 51.8022,34.8761 53.5,37.5 Z"/></g>
<g><path style="opacity:1" fill="#9d7348" d="M 97.5,46.5 C 100.409,51.5976 101.075,56.9309 99.5,62.5C 99.6351,57.0472 98.9685,51.7139 97.5,46.5 Z"/></g>
<g><path style="opacity:1" fill="#6281b9" d="M 33.5,46.5 C 35.8709,51.9409 37.8709,57.6075 39.5,63.5C 36.3422,58.3667 34.3422,52.7001 33.5,46.5 Z"/></g>
<g><path style="opacity:1" fill="#c5d3e6" d="M 155.5,74.5 C 158.957,74.6672 159.29,75.6672 156.5,77.5C 155.614,76.675 155.281,75.675 155.5,74.5 Z"/></g>
<g><path style="opacity:1" fill="#dfe7f2" d="M 41.5,79.5 C 43.8583,80.1136 46.1916,80.4469 48.5,80.5C 47.1349,81.941 45.6349,83.2744 44,84.5C 43.8253,88.211 43.3253,91.8776 42.5,95.5C 41.5052,90.2079 41.1718,84.8746 41.5,79.5 Z"/></g>
<g><path style="opacity:1" fill="#ccd8e9" d="M 53.5,79.5 C 56.9214,79.9737 60.2547,79.9737 63.5,79.5C 64.4948,84.7921 64.8282,90.1254 64.5,95.5C 53.4082,98.244 48.9082,93.9107 51,82.5C 52.045,81.6266 52.8783,80.6266 53.5,79.5 Z"/></g>
<g><path style="opacity:1" fill="#7193c3" d="M 85.5,92.5 C 84.8337,88.6475 84.167,84.6475 83.5,80.5C 82.5091,84.4454 82.1758,88.4454 82.5,92.5C 81.5151,88.3656 81.1818,84.0323 81.5,79.5C 82.8333,79.5 84.1667,79.5 85.5,79.5C 85.5,83.8333 85.5,88.1667 85.5,92.5 Z"/></g>
<g><path style="opacity:1" fill="#c2d1e5" d="M 155.5,79.5 C 156.5,79.5 157.5,79.5 158.5,79.5C 158.5,84.8333 158.5,90.1667 158.5,95.5C 157.5,95.5 156.5,95.5 155.5,95.5C 155.5,90.1667 155.5,84.8333 155.5,79.5 Z"/></g>
<g><path style="opacity:1" fill="#d6e0ee" d="M 128.5,83.5 C 128.131,87.7675 127.131,91.7675 125.5,95.5C 125.172,90.1254 125.505,84.7921 126.5,79.5C 128.617,80.5317 130.783,80.5317 133,79.5C 135.151,79.6431 136.818,80.6431 138,82.5C 138.499,87.1548 138.666,91.8215 138.5,96.5C 137.5,96.5 136.5,96.5 135.5,96.5C 135.666,92.1539 135.499,87.8206 135,83.5C 132.837,82.232 130.67,82.232 128.5,83.5 Z"/></g>
<g><path style="opacity:1" fill="#124295" d="M 54.5,82.5 C 61.0653,81.422 63.232,84.0886 61,90.5C 59.1735,94.0374 56.8402,94.3707 54,91.5C 53.2642,88.408 53.4309,85.408 54.5,82.5 Z"/></g>
<g><path style="opacity:1" fill="#d6e0ee" d="M 98.5,79.5 C 100.928,80.3895 103.262,80.7229 105.5,80.5C 104.653,81.8448 103.487,82.8448 102,83.5C 101.501,87.4862 101.334,91.4862 101.5,95.5C 100.5,95.5 99.5,95.5 98.5,95.5C 98.5,90.1667 98.5,84.8333 98.5,79.5 Z"/></g>
<g><path style="opacity:1" fill="#ccd7e9" d="M 69.5,79.5 C 71.8568,79.3367 74.1902,79.5034 76.5,80C 77.9733,80.7096 78.6399,81.8762 78.5,83.5C 68.2545,82.2112 67.9212,83.7112 77.5,88C 79.0763,94.5839 76.4096,97.2506 69.5,96C 68.6433,95.3109 67.9767,94.4776 67.5,93.5C 70.0436,93.0509 72.7102,93.0509 75.5,93.5C 75.762,92.0222 75.4287,90.6888 74.5,89.5C 68.0805,88.1621 66.4138,84.8288 69.5,79.5 Z"/></g>
<g><path style="opacity:1" fill="#d7e1ee" d="M 111.5,79.5 C 114.617,79.8723 117.617,79.8723 120.5,79.5C 121.833,84.8333 121.833,90.1667 120.5,95.5C 117.021,95.5782 113.521,95.2448 110,94.5C 106.359,89.0269 106.859,84.0269 111.5,79.5 Z"/></g>
<g><path style="opacity:1" fill="#184597" d="M 111.5,82.5 C 113.792,82.2436 115.959,82.5769 118,83.5C 119.004,86.9926 118.504,90.1592 116.5,93C 114.299,93.8249 112.466,93.3249 111,91.5C 110.264,88.408 110.431,85.408 111.5,82.5 Z"/></g>
<g><path style="opacity:1" fill="#8ea8ce" d="M 128.5,83.5 C 128.5,87.8333 128.5,92.1667 128.5,96.5C 127.209,96.7373 126.209,96.404 125.5,95.5C 127.131,91.7675 128.131,87.7675 128.5,83.5 Z"/></g>
<g><path style="opacity:1" fill="#c8d4e7" d="M 143.5,79.5 C 147.122,78.924 150.122,79.924 152.5,82.5C 149.956,82.9491 147.29,82.9491 144.5,82.5C 144.33,83.8221 144.663,84.9887 145.5,86C 150.314,86.466 152.481,88.966 152,93.5C 148.685,97.1053 145.018,97.4386 141,94.5C 140.251,93.365 140.417,92.365 141.5,91.5C 144.288,94.0748 146.955,94.0748 149.5,91.5C 147.295,89.4745 144.795,87.8078 142,86.5C 141.167,83.829 141.667,81.4957 143.5,79.5 Z"/></g>
<g><path style="opacity:1" fill="#c7d4e7" d="M 28.5,79.5 C 35.5,79.1667 38.8333,82.5 38.5,89.5C 34.774,89.1774 31.1073,89.5108 27.5,90.5C 30.2302,94.141 33.3969,94.4743 37,91.5C 37.5,91.8333 38,92.1667 38.5,92.5C 30.8817,99.0441 26.2151,97.3774 24.5,87.5C 24.6667,86.1667 24.8333,84.8333 25,83.5C 26.3756,82.2949 27.5423,80.9616 28.5,79.5 Z"/></g>
<g><path style="opacity:1" fill="#174396" d="M 28.5,82.5 C 30.5273,82.3379 32.5273,82.5045 34.5,83C 35.3366,84.0113 35.67,85.1779 35.5,86.5C 32.8333,86.5 30.1667,86.5 27.5,86.5C 27.4326,85.0413 27.7659,83.7079 28.5,82.5 Z"/></g>
<g><path style="opacity:1" fill="#cdd8e9" d="M 9.5,73.5 C 17.3209,71.8328 20.8209,74.8328 20,82.5C 19.5,83 19,83.5 18.5,84C 23.8333,88 23.8333,92 18.5,96C 15.2397,96.7835 12.0731,96.6168 9,95.5C 8.20363,88.0869 8.37029,80.7535 9.5,73.5 Z"/></g>
<g><path style="opacity:1" fill="#1f4899" d="M 11.5,85.5 C 13.5273,85.3379 15.5273,85.5045 17.5,86C 20.1667,88.3333 20.1667,90.6667 17.5,93C 15.5273,93.4955 13.5273,93.6621 11.5,93.5C 11.5,90.8333 11.5,88.1667 11.5,85.5 Z"/></g>
<g><path style="opacity:1" fill="#1f4798" d="M 11.5,76.5 C 17.5548,75.9421 18.8881,78.1088 15.5,83C 14.2068,83.49 12.8734,83.6567 11.5,83.5C 11.5,81.1667 11.5,78.8333 11.5,76.5 Z"/></g>
<g><path style="opacity:1" fill="#c8d4e7" d="M 82.5,92.5 C 82.1758,88.4454 82.5091,84.4454 83.5,80.5C 84.167,84.6475 84.8337,88.6475 85.5,92.5C 87.3388,93.7525 89.1722,93.7525 91,92.5C 91.499,88.1794 91.6657,83.8461 91.5,79.5C 92.5,79.5 93.5,79.5 94.5,79.5C 94.6658,84.1785 94.4992,88.8452 94,93.5C 89.6482,97.7891 85.8149,97.4558 82.5,92.5 Z"/></g>
</svg>
