<?xml version="1.0" encoding="UTF-8"?>
<!DOCTYPE svg PUBLIC "-//W3C//DTD SVG 1.1//EN" "http://www.w3.org/Graphics/SVG/1.1/DTD/svg11.dtd">
<svg xmlns="http://www.w3.org/2000/svg" version="1.1" width="450px" height="300px" style="shape-rendering:geometricPrecision; text-rendering:geometricPrecision; image-rendering:optimizeQuality; fill-rule:evenodd; clip-rule:evenodd" xmlns:xlink="http://www.w3.org/1999/xlink">
<g><path style="opacity:0.774" fill="#c39a6b" d="M 350.5,299.5 C 349.167,299.5 347.833,299.5 346.5,299.5C 345.266,296.535 345.266,293.535 346.5,290.5C 347.338,290.158 347.672,289.492 347.5,288.5C 350.389,285.744 352.556,282.411 354,278.5C 360.1,264.109 360.933,249.442 356.5,234.5C 357.046,232.865 357.38,231.199 357.5,229.5C 357.5,229.167 357.5,228.833 357.5,228.5C 358.167,228.5 358.5,228.167 358.5,227.5C 358.5,226.833 358.5,226.167 358.5,225.5C 359.167,225.5 359.5,225.167 359.5,224.5C 359.5,224.167 359.5,223.833 359.5,223.5C 360.961,221.648 361.961,219.482 362.5,217C 360.874,210.629 360.04,204.129 360,197.5C 356.909,190.872 351.743,188.372 344.5,190C 340.642,192.358 337.642,195.525 335.5,199.5C 333.167,200.167 330.833,200.833 328.5,201.5C 325.669,207.828 322.836,214.162 320,220.5C 319.333,222.5 319.333,224.5 320,226.5C 322.961,230.889 323.294,235.556 321,240.5C 319.397,247.705 316.231,254.038 311.5,259.5C 312.99,262.806 314.657,265.973 316.5,269C 314.425,274.795 312.425,280.628 310.5,286.5C 311.745,290.617 311.411,294.617 309.5,298.5C 308.833,298.5 308.5,298.833 308.5,299.5C 307.167,299.5 305.833,299.5 304.5,299.5C 305.296,296.444 306.296,293.444 307.5,290.5C 306.335,287.135 306.502,283.801 308,280.5C 309.5,276.667 311,272.833 312.5,269C 306.258,263.487 306.091,257.987 312,252.5C 314.393,247.322 316.393,241.988 318,236.5C 317.825,232.109 316.991,227.776 315.5,223.5C 317.139,217.084 319.473,210.917 322.5,205C 307.493,196.563 293.993,186.063 282,173.5C 280.47,177.09 279.136,180.757 278,184.5C 273.764,210.585 269.097,236.585 264,262.5C 262.621,271.327 258.954,278.994 253,285.5C 250.47,289.93 248.636,294.597 247.5,299.5C 246.167,299.5 244.833,299.5 243.5,299.5C 245.128,291.245 248.628,283.912 254,277.5C 256.587,272.739 258.587,267.739 260,262.5C 265.223,236.606 269.89,210.606 274,184.5C 275.667,179.5 277.333,174.5 279,169.5C 280.356,168.62 281.856,168.286 283.5,168.5C 283.314,164.205 284.314,160.205 286.5,156.5C 283.669,151.505 280.836,146.505 278,141.5C 277.713,137.397 278.047,133.397 279,129.5C 278.5,129 278,128.5 277.5,128C 273.752,127.907 270.086,127.74 266.5,127.5C 265.797,123.13 264.964,118.796 264,114.5C 261.853,113.887 259.686,113.221 257.5,112.5C 254.967,107.555 252.634,102.555 250.5,97.5C 250.567,96.0413 250.234,94.7079 249.5,93.5C 249.5,92.8333 249.167,92.5 248.5,92.5C 249.221,82.576 244.888,76.2426 235.5,73.5C 227.436,75.6332 224.603,80.6332 227,88.5C 229.62,93.2856 233.12,97.2856 237.5,100.5C 238.167,101.833 239.167,102.833 240.5,103.5C 244.689,111.375 249.023,119.209 253.5,127C 252.971,128.559 252.304,130.059 251.5,131.5C 252.485,134.59 253.151,137.756 253.5,141C 252.243,146.621 251.243,152.287 250.5,158C 253.599,173.376 252.766,188.542 248,203.5C 243.727,216.321 239.06,228.987 234,241.5C 231.999,250.845 229.999,260.178 228,269.5C 226.92,271.996 225.586,274.33 224,276.5C 216.261,283.735 209.095,291.402 202.5,299.5C 200.5,299.5 198.5,299.5 196.5,299.5C 204.096,290.401 212.263,281.734 221,273.5C 222,271.833 223,270.167 224,268.5C 226.439,258.204 228.772,247.871 231,237.5C 237.759,222.316 243.092,206.649 247,190.5C 248.9,179.484 248.733,168.484 246.5,157.5C 247.176,151.93 248.176,146.43 249.5,141C 248.28,123.06 240.78,108.227 227,96.5C 221.886,89.5814 221.22,82.2481 225,74.5C 233.882,67.3095 241.882,68.3095 249,77.5C 251.472,88.2498 255.139,98.5832 260,108.5C 263.169,108.863 265.836,110.197 268,112.5C 268.512,116.573 269.345,120.573 270.5,124.5C 281.998,122.503 285.665,127.003 281.5,138C 283.779,143.187 286.612,148.02 290,152.5C 290.927,157.006 290.094,161.173 287.5,165C 289.028,169.192 291.362,172.858 294.5,176C 298.466,178.964 302.133,182.297 305.5,186C 312.417,190.041 319.25,194.208 326,198.5C 328.355,197.192 330.855,196.192 333.5,195.5C 338.719,186.259 346.385,183.425 356.5,187C 364.01,192.196 366.343,199.196 363.5,208C 365.438,212.64 365.938,217.473 365,222.5C 363.017,226.278 361.517,230.278 360.5,234.5C 365.809,255.783 362.309,275.45 350,293.5C 349.51,295.545 349.677,297.545 350.5,299.5 Z M 248.5,92.5 C 244.618,94.9341 240.952,97.6007 237.5,100.5C 233.12,97.2856 229.62,93.2856 227,88.5C 224.603,80.6332 227.436,75.6332 235.5,73.5C 244.888,76.2426 249.221,82.576 248.5,92.5 Z M 247.5,96.5 C 245.719,99.0462 243.386,100.546 240.5,101C 242.551,98.9798 244.884,97.4798 247.5,96.5 Z M 354.5,206.5 C 359.997,214.216 359.831,221.883 354,229.5C 351.649,226.795 349.816,223.795 348.5,220.5C 350.509,215.817 352.509,211.15 354.5,206.5 Z M 347.5,228.5 C 350.875,230.59 352.041,233.59 351,237.5C 349.259,234.691 348.092,231.691 347.5,228.5 Z M 353.5,242.5 C 357.343,259.115 354.176,274.449 344,288.5C 343.578,286.645 343.078,284.811 342.5,283C 344.341,273.637 346.341,264.304 348.5,255C 348.111,251.769 347.111,248.769 345.5,246C 347.5,245.667 349.5,245.333 351.5,245C 352.381,244.292 353.047,243.458 353.5,242.5 Z"/></g>
<g><path style="opacity:0.506" fill="#939597" d="M 248.5,92.5 C 249.167,92.5 249.5,92.8333 249.5,93.5C 250.234,94.7079 250.567,96.0413 250.5,97.5C 247.794,100.521 244.461,102.521 240.5,103.5C 239.167,102.833 238.167,101.833 237.5,100.5C 240.952,97.6007 244.618,94.9341 248.5,92.5 Z M 247.5,96.5 C 244.884,97.4798 242.551,98.9798 240.5,101C 243.386,100.546 245.719,99.0462 247.5,96.5 Z"/></g>
<g><path style="opacity:0.701" fill="#6c6e70" d="M 446.5,299.5 C 445.5,299.5 444.5,299.5 443.5,299.5C 443.539,298.417 443.873,297.417 444.5,296.5C 435.394,283.514 432.061,269.18 434.5,253.5C 434.014,248.215 433.014,243.048 431.5,238C 432.359,221.487 432.859,204.987 433,188.5C 430.091,187.801 428.591,185.967 428.5,183C 431.888,169.171 434.222,155.171 435.5,141C 433.288,138.446 431.455,135.613 430,132.5C 429.755,128.147 429.755,123.813 430,119.5C 426.866,117.288 423.366,115.954 419.5,115.5C 418.193,114.847 416.86,114.18 415.5,113.5C 414.893,113.624 414.56,113.957 414.5,114.5C 413.833,114.5 413.5,114.833 413.5,115.5C 413.5,116.167 413.5,116.833 413.5,117.5C 412.833,117.5 412.5,117.833 412.5,118.5C 412.5,119.167 412.5,119.833 412.5,120.5C 411.662,120.842 411.328,121.508 411.5,122.5C 411.5,123.167 411.5,123.833 411.5,124.5C 411.5,125.167 411.833,125.5 412.5,125.5C 412.5,126.167 412.833,126.5 413.5,126.5C 414.167,126.5 414.833,126.5 415.5,126.5C 417.663,127.469 419.996,128.302 422.5,129C 423.451,129.718 423.617,130.551 423,131.5C 417.583,132.309 412.083,132.809 406.5,133C 404.887,135.228 404.22,137.728 404.5,140.5C 395.48,139.694 386.813,137.694 378.5,134.5C 378.167,133.167 377.833,133.167 377.5,134.5C 375.738,135.262 374.738,136.596 374.5,138.5C 373.833,138.5 373.5,138.833 373.5,139.5C 373.5,140.833 373.5,142.167 373.5,143.5C 372.596,144.209 372.263,145.209 372.5,146.5C 372.5,147.5 372.5,148.5 372.5,149.5C 371.167,151.833 371.167,154.167 372.5,156.5C 373.048,159.084 374.715,160.084 377.5,159.5C 383.921,159.174 390.588,159.674 397.5,161C 398.701,161.903 399.535,163.069 400,164.5C 400.333,167.833 400.667,171.167 401,174.5C 402.828,176.081 404.828,177.415 407,178.5C 408.292,184.579 405.959,188.579 400,190.5C 399.171,207.644 397.171,224.644 394,241.5C 392.983,246.527 391.149,251.194 388.5,255.5C 390.862,262.556 394.028,269.223 398,275.5C 399.122,283.518 400.288,291.518 401.5,299.5C 400.5,299.5 399.5,299.5 398.5,299.5C 398.496,285.622 394.662,272.956 387,261.5C 386.5,259.5 386,257.5 385.5,255.5C 387.595,250.97 389.428,246.304 391,241.5C 392.279,230.107 393.945,218.774 396,207.5C 396.333,201.5 396.667,195.5 397,189.5C 400.09,187.549 402.59,185.049 404.5,182C 402.373,179.873 400.206,177.706 398,175.5C 397.667,172.167 397.333,168.833 397,165.5C 396.692,164.692 396.192,164.025 395.5,163.5C 387.882,162.699 380.216,162.199 372.5,162C 370.03,159.934 368.696,157.267 368.5,154C 369.211,148.814 370.044,143.647 371,138.5C 372.239,131.928 376.073,129.762 382.5,132C 388.369,135.369 394.702,136.702 401.5,136C 402.894,130.945 406.227,128.611 411.5,129C 409.09,128.242 408.09,126.575 408.5,124C 409.257,119.728 410.424,115.561 412,111.5C 419.387,111.602 426.387,113.602 433,117.5C 432.918,122.495 432.918,127.495 433,132.5C 435.84,134.501 437.673,137.168 438.5,140.5C 437.173,147.421 436.339,154.421 436,161.5C 434.054,168.064 432.554,174.73 431.5,181.5C 432.048,183.556 433.214,185.223 435,186.5C 435.167,190.167 435.333,193.833 435.5,197.5C 434.332,206.839 434.332,216.173 435.5,225.5C 435.698,229.858 435.032,234.025 433.5,238C 435.081,240.998 436.247,244.165 437,247.5C 434.939,261 436.606,274 442,286.5C 444.609,289.383 446.442,292.717 447.5,296.5C 446.873,297.417 446.539,298.417 446.5,299.5 Z M 415.5,116.5 C 416.586,116.62 417.253,117.287 417.5,118.5C 417.147,120.731 416.314,122.731 415,124.5C 414.5,124 414,123.5 413.5,123C 414.669,120.993 415.335,118.827 415.5,116.5 Z M 376.5,137.5 C 377.75,137.577 378.583,138.244 379,139.5C 380.406,146.191 379.073,152.191 375,157.5C 374.286,150.73 374.786,144.064 376.5,137.5 Z"/></g>
<g><path style="opacity:0.534" fill="#929497" d="M 419.5,115.5 C 419.722,119.842 418.389,123.509 415.5,126.5C 414.833,126.5 414.167,126.5 413.5,126.5C 412.833,126.5 412.5,126.167 412.5,125.5C 411.833,125.5 411.5,125.167 411.5,124.5C 411.5,123.833 411.5,123.167 411.5,122.5C 412.338,122.158 412.672,121.492 412.5,120.5C 412.5,119.833 412.5,119.167 412.5,118.5C 413.167,118.5 413.5,118.167 413.5,117.5C 413.5,116.833 413.5,116.167 413.5,115.5C 414.167,115.5 414.5,115.167 414.5,114.5C 414.56,113.957 414.893,113.624 415.5,113.5C 416.86,114.18 418.193,114.847 419.5,115.5 Z M 415.5,116.5 C 415.335,118.827 414.669,120.993 413.5,123C 414,123.5 414.5,124 415,124.5C 416.314,122.731 417.147,120.731 417.5,118.5C 417.253,117.287 416.586,116.62 415.5,116.5 Z"/></g>
<g><path style="opacity:0.75" fill="#929597" d="M 133.5,299.5 C 131.833,299.5 130.167,299.5 128.5,299.5C 127.565,296.887 127.398,294.221 128,291.5C 130.037,282.078 135.037,274.745 143,269.5C 145.833,265.333 148.667,261.167 151.5,257C 152.167,256.333 152.833,256.333 153.5,257C 154.46,258.419 155.293,259.919 156,261.5C 154.521,258.057 155.521,255.724 159,254.5C 160.261,254.759 161.261,255.426 162,256.5C 162.561,253.71 163.894,251.377 166,249.5C 166.345,247.323 165.845,245.323 164.5,243.5C 165.024,241.617 165.691,239.784 166.5,238C 165.833,236.667 165.167,235.333 164.5,234C 166.144,230.641 166.644,227.141 166,223.5C 162.667,222.833 160.667,220.833 160,217.5C 159.51,218.793 159.343,220.127 159.5,221.5C 155.519,222.021 151.519,222.354 147.5,222.5C 148.376,219.201 148.543,215.868 148,212.5C 146.963,215.384 145.129,216.05 142.5,214.5C 140.198,210.367 137.698,206.367 135,202.5C 134.865,199.039 135.199,195.706 136,192.5C 131.736,182.541 127.569,172.541 123.5,162.5C 120.943,162.218 118.277,162.051 115.5,162C 114.874,161.25 114.374,160.416 114,159.5C 113.727,161.101 113.227,162.601 112.5,164C 108.993,166.254 105.327,168.254 101.5,170C 100.216,170.684 99.0495,170.517 98,169.5C 97.7162,173.12 95.8829,175.62 92.5,177C 98.2333,186.069 104.733,194.569 112,202.5C 113.275,204.717 114.275,207.051 115,209.5C 114.28,226.206 114.613,242.873 116,259.5C 110.841,268.668 104.174,276.668 96,283.5C 91.9765,289.014 87.8098,294.347 83.5,299.5C 81.5,299.5 79.5,299.5 77.5,299.5C 87.0888,287.739 97.2554,276.406 108,265.5C 113.845,258.115 114.845,250.115 111,241.5C 110.638,230.82 110.638,220.153 111,209.5C 105,201.5 99,193.5 93,185.5C 91.1105,182.888 89.6105,180.055 88.5,177C 89.0828,174.085 90.7495,172.085 93.5,171C 85.566,157.034 89.566,148.868 105.5,146.5C 112.348,147.678 116.681,151.678 118.5,158.5C 121.614,156.938 124.447,157.271 127,159.5C 130,167.167 133,174.833 136,182.5C 136.238,174.416 137.071,166.416 138.5,158.5C 141.149,157.028 143.982,156.028 147,155.5C 147.525,149.229 149.358,143.396 152.5,138C 158.764,134.446 165.098,134.112 171.5,137C 175.508,140.185 177.508,144.351 177.5,149.5C 175.263,157.616 176.763,164.949 182,171.5C 181.761,183.693 179.595,195.526 175.5,207C 167.943,205.726 164.276,208.893 164.5,216.5C 170.752,220.722 172.085,226.222 168.5,233C 171.017,236.295 171.017,239.629 168.5,243C 171.259,247.059 170.925,250.892 167.5,254.5C 174.757,265.259 182.591,275.592 191,285.5C 192.422,288.03 192.755,290.697 192,293.5C 189.79,294.749 187.624,294.582 185.5,293C 179.308,286.109 173.474,278.942 168,271.5C 169.968,276.958 172.135,282.458 174.5,288C 174.167,291.74 172.167,293.073 168.5,292C 162.369,282.909 156.869,273.409 152,263.5C 148.43,270.405 143.43,276.071 137,280.5C 134.871,285.054 133.038,289.72 131.5,294.5C 131.902,296.3 132.569,297.967 133.5,299.5 Z M 160.5,138.5 C 166.414,137.953 170.581,140.286 173,145.5C 173,150.833 173,156.167 173,161.5C 174.871,166.558 176.704,171.558 178.5,176.5C 176.959,185.536 175.293,194.536 173.5,203.5C 169.484,202.9 165.984,203.9 163,206.5C 165.953,199.435 163.453,195.435 155.5,194.5C 153.088,194.406 151.255,195.406 150,197.5C 149.667,200.833 149.333,204.167 149,207.5C 147.739,200.908 144.739,195.241 140,190.5C 140.062,180.491 140.562,170.491 141.5,160.5C 144.249,160.726 146.916,160.393 149.5,159.5C 150.805,153.34 152.638,147.34 155,141.5C 156.876,140.391 158.709,139.391 160.5,138.5 Z M 105.5,152.5 C 109.672,154.508 111.505,157.841 111,162.5C 107.333,164.5 103.667,166.5 100,168.5C 93.0316,160.269 94.8649,154.936 105.5,152.5 Z M 153.5,196.5 C 157.162,196.003 160.162,197.169 162.5,200C 160.751,206.071 159.251,212.238 158,218.5C 155.435,220.179 152.602,220.846 149.5,220.5C 150.223,213.168 151.056,205.835 152,198.5C 152.717,197.956 153.217,197.289 153.5,196.5 Z M 139.5,198.5 C 142.703,200.538 144.703,203.538 145.5,207.5C 145.192,208.308 144.692,208.975 144,209.5C 142.167,206.333 140.333,203.167 138.5,200C 139.056,199.617 139.389,199.117 139.5,198.5 Z M 175.5,273.5 C 176.906,273.973 177.573,274.973 177.5,276.5C 176.094,276.027 175.427,275.027 175.5,273.5 Z M 178.5,277.5 C 180.262,278.262 181.262,279.596 181.5,281.5C 179.738,280.738 178.738,279.404 178.5,277.5 Z M 183.5,283.5 C 185.262,284.262 186.262,285.596 186.5,287.5C 184.738,286.738 183.738,285.404 183.5,283.5 Z"/></g>
<g><path style="opacity:0.526" fill="#929597" d="M 377.5,134.5 C 377.833,134.5 378.167,134.5 378.5,134.5C 382.536,142.901 382.203,151.234 377.5,159.5C 374.715,160.084 373.048,159.084 372.5,156.5C 372.5,154.167 372.5,151.833 372.5,149.5C 372.5,148.5 372.5,147.5 372.5,146.5C 373.404,145.791 373.737,144.791 373.5,143.5C 373.5,142.167 373.5,140.833 373.5,139.5C 374.167,139.5 374.5,139.167 374.5,138.5C 374.738,136.596 375.738,135.262 377.5,134.5 Z M 376.5,137.5 C 374.786,144.064 374.286,150.73 375,157.5C 379.073,152.191 380.406,146.191 379,139.5C 378.583,138.244 377.75,137.577 376.5,137.5 Z"/></g>
<g><path style="opacity:0.778" fill="#00aeef" d="M 55.5,299.5 C 53.8333,299.5 52.1667,299.5 50.5,299.5C 44.6339,277.899 38.9672,256.232 33.5,234.5C 35.1211,227.435 36.9544,220.435 39,213.5C 43.0395,211.204 47.3728,209.87 52,209.5C 52.6172,208.551 52.4506,207.718 51.5,207C 50.2068,206.51 48.8734,206.343 47.5,206.5C 47.3433,205.127 47.51,203.793 48,202.5C 49.6971,200.301 51.1971,197.968 52.5,195.5C 50.2501,193.886 48.2501,192.053 46.5,190C 47.1117,187.942 48.1117,186.109 49.5,184.5C 47.8076,182.641 46.3076,180.641 45,178.5C 42.9215,166.774 40.5881,155.107 38,143.5C 36.6472,142.296 34.9806,141.629 33,141.5C 27.4481,142.055 22.1147,143.388 17,145.5C 17.1726,151.85 17.506,158.184 18,164.5C 15.8503,168.64 13.0169,172.14 9.5,175C 11.875,179.248 13.5416,183.748 14.5,188.5C 14.3983,191.37 13.2317,193.703 11,195.5C 10.8333,197 10.6667,198.5 10.5,200C 13.6866,209.583 15.8533,219.416 17,229.5C 16.1676,252.856 16.6676,276.189 18.5,299.5C 17.1667,299.5 15.8333,299.5 14.5,299.5C 13.787,275.509 13.287,251.509 13,227.5C 11.1154,218.077 8.94877,208.743 6.5,199.5C 6.66667,197.833 6.83333,196.167 7,194.5C 8.40382,192.606 9.57048,190.606 10.5,188.5C 8.96784,183.938 7.30117,179.438 5.5,175C 5.62515,173.373 6.12515,171.873 7,170.5C 10,168.833 12.3333,166.5 14,163.5C 13.9464,158.496 13.4464,153.496 12.5,148.5C 12.1182,143.43 14.4516,140.597 19.5,140C 26.0791,137.708 32.7458,137.208 39.5,138.5C 40.5836,139.665 41.4169,140.998 42,142.5C 44.3118,154.56 46.8118,166.56 49.5,178.5C 53.886,181.318 54.5527,184.818 51.5,189C 57.6602,192.953 57.9936,197.62 52.5,203C 58.9005,206.857 58.9005,210.524 52.5,214C 48.7665,214.066 45.2665,214.899 42,216.5C 40.4052,222.456 38.9052,228.456 37.5,234.5C 42.7282,256.416 48.7282,278.083 55.5,299.5 Z M 26.5,146.5 C 29.5,146.5 32.5,146.5 35.5,146.5C 38.0117,156.4 39.0117,166.4 38.5,176.5C 33.5628,174.632 28.5628,172.965 23.5,171.5C 21.5864,163.877 20.9197,156.211 21.5,148.5C 23.3361,147.972 25.0028,147.306 26.5,146.5 Z"/></g>
<g><path style="opacity:0.567" fill="#27aae1" d="M 26.5,144.5 C 30.1064,144.211 33.6064,144.544 37,145.5C 39.575,156.358 41.075,167.358 41.5,178.5C 34.6529,177.107 27.9862,175.107 21.5,172.5C 19.9221,163.925 19.2554,155.258 19.5,146.5C 22.0673,146.279 24.4006,145.612 26.5,144.5 Z M 26.5,146.5 C 25.0028,147.306 23.3361,147.972 21.5,148.5C 20.9197,156.211 21.5864,163.877 23.5,171.5C 28.5628,172.965 33.5628,174.632 38.5,176.5C 39.0117,166.4 38.0117,156.4 35.5,146.5C 32.5,146.5 29.5,146.5 26.5,146.5 Z"/></g>
<g><path style="opacity:0.543" fill="#929597" d="M 157.5,155.5 C 162.259,155.581 166.593,156.915 170.5,159.5C 170.167,159.833 169.833,160.167 169.5,160.5C 164.262,157.286 158.929,156.953 153.5,159.5C 152.479,158.998 152.312,158.332 153,157.5C 154.622,156.901 156.122,156.234 157.5,155.5 Z"/></g>
<g><path style="opacity:0.52" fill="#929597" d="M 359.5,223.5 C 359.5,223.833 359.5,224.167 359.5,224.5C 358.833,224.5 358.5,224.833 358.5,225.5C 358.5,226.167 358.5,226.833 358.5,227.5C 357.833,227.5 357.5,227.833 357.5,228.5C 357.5,228.833 357.5,229.167 357.5,229.5C 356.206,230.29 355.039,231.29 354,232.5C 353.71,234.952 353.044,237.285 352,239.5C 351.107,240.711 350.274,240.711 349.5,239.5C 347.543,235.257 345.876,230.924 344.5,226.5C 346.215,219.068 349.048,212.068 353,205.5C 354.049,204.483 355.216,204.316 356.5,205C 359.767,210.829 360.767,216.996 359.5,223.5 Z M 354.5,206.5 C 352.509,211.15 350.509,215.817 348.5,220.5C 349.816,223.795 351.649,226.795 354,229.5C 359.831,221.883 359.997,214.216 354.5,206.5 Z M 347.5,228.5 C 348.092,231.691 349.259,234.691 351,237.5C 352.041,233.59 350.875,230.59 347.5,228.5 Z"/></g>
<g><path style="opacity:0.541" fill="#929597" d="M 347.5,288.5 C 346.662,288.842 346.328,289.508 346.5,290.5C 344.464,293.338 342.964,293.005 342,289.5C 341.333,284.833 341.333,280.167 342,275.5C 343.5,268.832 345,262.165 346.5,255.5C 345.961,251.55 344.628,247.883 342.5,244.5C 347.25,244.426 351.25,242.76 354.5,239.5C 355.086,239.709 355.586,240.043 356,240.5C 359.096,257.59 356.263,273.59 347.5,288.5 Z M 353.5,242.5 C 353.047,243.458 352.381,244.292 351.5,245C 349.5,245.333 347.5,245.667 345.5,246C 347.111,248.769 348.111,251.769 348.5,255C 346.341,264.304 344.341,273.637 342.5,283C 343.078,284.811 343.578,286.645 344,288.5C 354.176,274.449 357.343,259.115 353.5,242.5 Z"/></g>
<g><path style="opacity:0.836" fill="#c39a6b" d="M 326.5,299.5 C 325.167,299.5 323.833,299.5 322.5,299.5C 322.216,296.746 321.549,294.08 320.5,291.5C 318.122,293.878 316.122,296.545 314.5,299.5C 312.833,299.5 311.167,299.5 309.5,299.5C 309.5,299.167 309.5,298.833 309.5,298.5C 312.557,294.742 315.39,290.742 318,286.5C 319.733,284.398 321.733,284.065 324,285.5C 324.729,290.206 325.562,294.873 326.5,299.5 Z"/></g>
</svg>
